<?xml version="1.0" encoding="utf-8"?>
<!-- Generator: Adobe Illustrator 20.1.0, SVG Export Plug-In . SVG Version: 6.00 Build 0)  -->
<svg version="1.1" id="Layer_1" xmlns="http://www.w3.org/2000/svg" xmlns:xlink="http://www.w3.org/1999/xlink" x="0px" y="0px"
	 viewBox="0 0 300 300" style="enable-background:new 0 0 300 300;" xml:space="preserve">
<style type="text/css">
	.st0{fill:url(#SVGID_1_);}
	.st1{fill:url(#SVGID_2_);}
	.st2{fill:url(#SVGID_3_);}
	.st3{fill:none;}
	.st4{fill-rule:evenodd;clip-rule:evenodd;fill:#FFFFFF;}
	.st5{fill:#FFFFFF;}
	.st6{fill:url(#SVGID_4_);}
	.st7{opacity:0.54;}
	.st8{fill:url(#SVGID_5_);}
</style>
<radialGradient id="SVGID_1_" cx="132.6195" cy="-76.8327" r="336.0328" gradientTransform="matrix(1.0166 -0.3429 0.3429 1.0166 -45.6944 25.9254)" gradientUnits="userSpaceOnUse">
	<stop  offset="0" style="stop-color:#F9AA4F"/>
	<stop  offset="1" style="stop-color:#F48020"/>
</radialGradient>
<path class="st0" d="M290.9,87.7C273.1,58.3,188.3,34,122.3,58.7C54.7,78.9,1.8,149.5,5.4,183.6c0,3.2,4.8,16.1,6.7,18.6
	c17.8,29.3,102.7,53.4,168.7,28.6c67.5-20.4,120.3-91.1,116.6-125.2C297.3,102.3,295.4,94.1,290.9,87.7z"/>
<g>
	
		<linearGradient id="SVGID_2_" gradientUnits="userSpaceOnUse" x1="262.2435" y1="211.7399" x2="262.2435" y2="97.8578" gradientTransform="matrix(0.9476 -0.3196 0.3196 0.9476 -44.2403 58.6208)">
		<stop  offset="0" style="stop-color:#B7AB85"/>
		<stop  offset="0.1598" style="stop-color:#CEC6AD"/>
		<stop  offset="0.3329" style="stop-color:#E3DFD0"/>
		<stop  offset="0.4956" style="stop-color:#F3F1EA"/>
		<stop  offset="0.6421" style="stop-color:#FCFBFA"/>
		<stop  offset="0.7582" style="stop-color:#FFFFFF"/>
		<stop  offset="0.8372" style="stop-color:#FDFDFB"/>
		<stop  offset="0.9178" style="stop-color:#F8F6EF"/>
		<stop  offset="0.9988" style="stop-color:#F0EADA"/>
		<stop  offset="1" style="stop-color:#F0EADA"/>
	</linearGradient>
	<path class="st1" d="M262,100.7c-5.4-15.9-13.7-30.9-21.1-42.6c-8.1-2.5-16.8-4.7-26-6.2c2.4,3.2,5.5,7.5,9,12.8
		c7.4,11.3,16.2,26.5,21.3,41.7c1.6,4.7,1.6,4.7,4.1,12c5.1,15.2,7.5,32.6,8.4,46c0.4,6.3,0.6,11.6,0.6,15.6
		c6.3-6.8,12-13.8,16.9-20.7c-1.2-13.8-3.7-30.7-9.1-46.6C263.8,105.8,263.8,105.8,262,100.7z"/>
	
		<linearGradient id="SVGID_3_" gradientUnits="userSpaceOnUse" x1="1869.292" y1="211.7399" x2="1869.292" y2="97.8578" gradientTransform="matrix(-0.9476 0.3196 0.3196 0.9476 1773.8772 -554.5872)">
		<stop  offset="0" style="stop-color:#B7AB85"/>
		<stop  offset="0.1598" style="stop-color:#CEC6AD"/>
		<stop  offset="0.3329" style="stop-color:#E3DFD0"/>
		<stop  offset="0.4956" style="stop-color:#F3F1EA"/>
		<stop  offset="0.6421" style="stop-color:#FCFBFA"/>
		<stop  offset="0.7582" style="stop-color:#FFFFFF"/>
		<stop  offset="0.8372" style="stop-color:#FDFDFB"/>
		<stop  offset="0.9178" style="stop-color:#F8F6EF"/>
		<stop  offset="0.9988" style="stop-color:#F0EADA"/>
		<stop  offset="1" style="stop-color:#F0EADA"/>
	</linearGradient>
	<path class="st2" d="M36.9,190c5.4,15.9,13.6,30.9,21,42.6c8.1,2.6,16.8,4.7,26,6.2c-2.4-3.2-5.5-7.5-8.9-12.8
		c-7.4-11.3-16.1-26.5-21.2-41.7c-2.5-7.3-2.4-7.3-4-12c-5.1-15.2-7.4-32.6-8.3-46.1c-0.4-6.3-0.6-11.6-0.6-15.6
		c-6.4,6.8-12,13.7-16.9,20.7c1.2,13.8,3.6,30.7,9,46.7C34.6,183.1,34.6,183.1,36.9,190z"/>
</g>
<rect x="-25.6" y="-17.9" transform="matrix(0.9476 -0.3196 0.3196 0.9476 -43.9299 58.1577)" class="st3" width="361.8" height="361.8"/>
<g>
	<path class="st4" d="M158.3,88.2c15.2,7.5,22.5,26.4,16.7,40.8c-2,4.9-5.3,8.7-10.2,11.1c-3.5,1.7-6.9,3.6-10.5,5.3
		c-2.1,1-3.1,2.5-3.3,4.9c-0.3,5-0.9,10-1.3,15c-0.2,2.7-1.4,4.5-3.9,5.7c-8.5,4-16.9,8.2-25.4,12.3c-6.6,3.2-11.9-0.2-11.7-7.4
		c0.7-18.6,1.4-37.3,2.1-55.9c0.3-8.5,4.2-14.7,11.5-19.1c5.6-3.4,11-7.3,16.4-11C145.6,85.3,152.5,85.6,158.3,88.2z M136.7,108
		c-1.4,0.7-2.2,1-2.9,1.5c-4.9,3.2-9.8,6.5-14.7,9.8c-4.7,3.1-5.7,6-4.1,12c6.6-4,13.1-8,19.6-12c0.7-0.4,1.3-1.4,1.4-2.2
		C136.3,114.3,136.5,111.4,136.7,108z M143.4,169.4c-2.4-2.1-4.5-2.5-7-1.2c-6.9,3.7-13.9,7.1-20.8,10.7c-0.6,0.3-1.1,0.9-1.7,1.4
		c2,1.9,3.9,1.8,6.1,0.8c5.8-2.9,11.6-5.7,17.4-8.6C139.2,171.5,141.1,170.5,143.4,169.4z"/>
	<g>
		<path class="st5" d="M147.1,92.4c-6.7,0-12.1-5.4-12.1-12.1c0-6.7,5.4-12.1,12.1-12.1s12.1,5.4,12.1,12.1
			C159.2,87,153.8,92.4,147.1,92.4z M147.1,70.9c-5.2,0-9.4,4.2-9.4,9.4c0,5.2,4.2,9.4,9.4,9.4s9.4-4.2,9.4-9.4
			C156.4,75.1,152.2,70.9,147.1,70.9z"/>
	</g>
</g>
<linearGradient id="SVGID_4_" gradientUnits="userSpaceOnUse" x1="156.1297" y1="211.5794" x2="156.1297" y2="76.8074" gradientTransform="matrix(0.9476 -0.3196 0.3196 0.9476 -44.2403 58.6208)">
	<stop  offset="0" style="stop-color:#B7AB85"/>
	<stop  offset="8.744784e-02" style="stop-color:#C2B898"/>
	<stop  offset="0.3561" style="stop-color:#E3DED0"/>
	<stop  offset="0.5566" style="stop-color:#F7F6F2"/>
	<stop  offset="0.6648" style="stop-color:#FFFFFF"/>
	<stop  offset="0.7832" style="stop-color:#FDFDFC"/>
	<stop  offset="0.8681" style="stop-color:#F8F7F3"/>
	<stop  offset="0.9422" style="stop-color:#EFECE3"/>
	<stop  offset="1" style="stop-color:#E4E0D1"/>
</linearGradient>
<path class="st6" d="M244.9,99.4c-1.9,0.6-0.9,3.6,1,2.9C247.8,101.7,246.8,98.7,244.9,99.4z M240.9,87.6c-1.9,0.6-0.9,3.6,1,2.9
	C243.8,89.9,242.8,86.9,240.9,87.6z M242.9,93.5c-1.9,0.6-0.9,3.6,1,2.9C245.8,95.8,244.8,92.8,242.9,93.5z M238.9,81.7
	c-1.9,0.6-0.9,3.6,1,2.9C241.8,84,240.8,81,238.9,81.7z M236.9,75.8c-1.9,0.6-0.9,3.6,1,2.9C239.8,78.1,238.8,75.1,236.9,75.8z
	 M246.8,105.2c-1.9,0.6-0.9,3.6,1,2.9C249.7,107.6,248.8,104.6,246.8,105.2z M250.8,117c-1.9,0.6-0.9,3.6,1,2.9
	C253.7,119.3,252.7,116.4,250.8,117z M248.8,111.1c-1.9,0.6-0.9,3.6,1,2.9C251.7,113.4,250.7,110.5,248.8,111.1z M229.9,55.1
	C230,55.1,230,55.1,229.9,55.1c-0.5-0.2-1.1-0.3-1.6-0.5C228.7,55.1,229.2,55.4,229.9,55.1z M221.1,58.1c-0.4,0.1-0.6,0.4-0.8,0.7
	c0.5,0.7,1.1,1.5,1.6,2.3c0.1,0,0.1,0,0.2,0C224,60.4,223,57.5,221.1,58.1z M258.4,176.7c0.7-0.6,0.5-1.7-0.1-2.3
	C258.4,175.2,258.4,176,258.4,176.7z M262.8,172.1c-1.5,0.5-1.2,2.5,0,2.9c0.6-0.7,1.2-1.4,1.8-2.1
	C264.3,172.3,263.7,171.8,262.8,172.1z M219.8,55.3c1.2-0.1,1.5-1.3,1.2-2.2c-0.8-0.2-1.6-0.3-2.5-0.5
	C217.6,53.5,218.2,55.5,219.8,55.3z M252.8,122.9c-1.9,0.6-0.9,3.6,1,2.9C255.7,125.2,254.7,122.3,252.8,122.9z M232.9,64
	c-1.9,0.6-0.9,3.6,1,2.9C235.8,66.3,234.8,63.3,232.9,64z M234.9,69.9c-1.9,0.6-0.9,3.6,1,2.9C237.8,72.2,236.8,69.2,234.9,69.9z
	 M230.9,58.1c-1.9,0.6-0.9,3.6,1,2.9C233.8,60.4,232.9,57.4,230.9,58.1z M260.8,166.2c-1.9,0.6-0.9,3.6,1,2.9
	C263.7,168.5,262.7,165.5,260.8,166.2z M263,142.5c-2,0.2-1.6,3.3,0.4,3.1C265.4,145.3,265,142.2,263,142.5z M265.1,148.4
	c-2.1,0.1-1.8,3.4,0.3,3.1C267.3,151.2,267.1,148.3,265.1,148.4z M261.2,136.6c-2.1,0.1-1.8,3.4,0.3,3.1
	C263.4,139.4,263.1,136.5,261.2,136.6z M253.2,113c-2.1,0.1-1.8,3.4,0.3,3.1C255.4,115.9,255.1,112.9,253.2,113z M269.1,160.2
	c-2.1,0.1-1.8,3.4,0.3,3.1C271.3,163,271,160.1,269.1,160.2z M259.1,130.7c-2,0.2-1.6,3.3,0.4,3.1
	C261.4,133.6,261.1,130.5,259.1,130.7z M267,154.3c-2,0.2-1.6,3.3,0.4,3.1C269.4,157.1,269,154,267,154.3z M241.3,77.6
	c-2.1,0.1-1.8,3.4,0.3,3.1C243.5,80.5,243.2,77.5,241.3,77.6z M255.5,122c2-0.2,1.6-3.3-0.4-3.1C253.1,119.2,253.5,122.3,255.5,122z
	 M254.8,128.8c-1.9,0.6-0.9,3.6,1,2.9C257.7,131.1,256.7,128.2,254.8,128.8z M264.7,158.3c-1.9,0.6-0.9,3.6,1,2.9
	C267.6,160.6,266.6,157.7,264.7,158.3z M256.8,134.7c-1.9,0.6-0.9,3.6,1,2.9C259.7,137,258.7,134.1,256.8,134.7z M258.8,140.6
	c-1.9,0.6-0.9,3.6,1,2.9C261.7,142.9,260.7,140,258.8,140.6z M266.7,164.2c-1.9,0.6-0.9,3.6,1,2.9
	C269.6,166.5,268.6,163.6,266.7,164.2z M260.8,146.5c-1.9,0.6-0.9,3.6,1,2.9C263.7,148.8,262.7,145.9,260.8,146.5z M262.8,152.4
	c-1.9,0.6-0.9,3.6,1,2.9C265.7,154.7,264.7,151.8,262.8,152.4z M271.7,164.1c0.5-0.7,1-1.3,1.5-2c-0.2,0-0.3,0-0.5,0.1
	C271.7,162.5,271.5,163.4,271.7,164.1z M259.2,170.1c-0.4,0.1-0.7,0.2-0.9,0.5c0,0.8,0.1,1.5,0.1,2.2c0.3,0.3,0.7,0.4,1.2,0.4
	C261.5,172.9,261.2,169.8,259.2,170.1z M225,60.1c-1.9,0.6-0.9,3.6,1,2.9C227.9,62.4,226.9,59.4,225,60.1z M260,178.1
	c0.6-0.7,1.3-1.4,1.9-2.1c-0.2-0.1-0.4-0.1-0.6-0.1C260,176,259.6,177.3,260,178.1z M258,167.1c1.2-0.6,1-2.4-0.2-2.9
	C257.9,165.2,258,166.2,258,167.1z M227,66c-0.7,0.2-1,0.8-1,1.4c0.3,0.5,0.6,1,1,1.5c0.3,0.1,0.6,0.2,1,0
	C229.9,68.3,228.9,65.3,227,66z M223,54.2c-1.9,0.6-0.9,3.6,1,2.9C225.9,56.5,224.9,53.5,223,54.2z M258.8,160.3
	c-1.9,0.6-0.9,3.6,1,2.9C261.7,162.6,260.7,159.7,258.8,160.3z M224.1,64.5c0.3,0.5,0.6,0.9,0.9,1.4c0.2-0.8-0.3-1.8-1.2-1.9
	C223.9,64.2,224,64.3,224.1,64.5z M255.8,145.7c0.1,0.4,0.1,0.8,0.2,1.2c0.1,0.1,0.2,0.3,0.4,0.4c1.7,1.2,3.5-1.5,1.7-2.6
	C257.1,144.1,256.1,144.8,255.8,145.7z M258.8,150.5c-1.9,0.6-0.9,3.6,1,2.9C261.7,152.8,260.7,149.8,258.8,150.5z M215.4,52.1
	c0.3,0.3,0.5,0.7,0.8,1.1c0.4-0.2,0.7-0.5,0.8-0.8C216.5,52.3,216,52.2,215.4,52.1z M260.4,159.1c1.7,1.2,3.5-1.5,1.7-2.6
	C260.5,155.5,258.8,157.9,260.4,159.1z M264.4,170.9c1.7,1.2,3.5-1.5,1.7-2.6C264.4,167.3,262.8,169.7,264.4,170.9z M257.8,157.3
	c1.9-0.6,1-3.4-0.9-3c0.1,1,0.2,2,0.3,3C257.5,157.4,257.6,157.4,257.8,157.3z M262.8,162.2c-1.9,0.6-0.9,3.6,1,2.9
	C265.7,164.5,264.7,161.6,262.8,162.2z M254.6,133.3c-0.3-0.4-0.7-0.6-1.1-0.6c0.2,1,0.4,1.9,0.6,2.9
	C254.8,135.1,255.2,134.1,254.6,133.3z M242.6,97.9c-0.2-0.2-0.3-0.3-0.5-0.4c0.3,0.6,0.5,1.3,0.8,1.9C243,98.9,243,98.4,242.6,97.9
	z M244.6,103.8c0.1,0.3,0.2,0.6,0.3,0.9C244.9,104.4,244.8,104.1,244.6,103.8z M239.4,91.4c0.4,0.8,0.8,1.7,1.2,2.5
	C241.4,93.1,240.7,91.4,239.4,91.4z M254.7,138.7c0.2,1,0.4,2,0.5,2.9c0.2,0,0.4,0,0.6-0.1c1.9-0.6,0.9-3.6-1-2.9
	C254.8,138.7,254.7,138.7,254.7,138.7z M252.1,127c0.2,0.7,0.4,1.5,0.6,2.2C253.1,128.5,252.8,127.4,252.1,127z M228,59.1
	c1.9-0.6,0.9-3.6-1-2.9C225.1,56.8,226.1,59.7,228,59.1z M230.7,62.5c-1.4-1.8-4,0.8-2.2,2.2C230,65.8,231.8,63.9,230.7,62.5z
	 M232.5,78.1c0.2,0.3,0.3,0.5,0.5,0.8C232.9,78.6,232.7,78.3,232.5,78.1z M234.9,79.7c-0.6,0.2-0.9,0.6-1,1.1c0.3,0.6,0.7,1.2,1,1.9
	c0.3,0.1,0.6,0.1,0.9,0C237.8,82,236.9,79.1,234.9,79.7z M250.5,121.3c0.1,0.4,0.3,0.8,0.4,1.3C250.9,122.1,250.8,121.7,250.5,121.3
	z M229,71.9c-0.1,0-0.1,0.1-0.1,0.1c0.5,0.9,1,1.7,1.6,2.6C231.7,73.6,230.7,71.3,229,71.9z M231,67.9c-1.9,0.6-0.9,3.6,1,2.9
	C233.9,70.2,232.9,67.3,231,67.9z M233.8,73.8c-1.6-0.4-2.6,1.8-1.3,2.8C234.5,78,236.2,74.3,233.8,73.8z M246.6,109.6
	c0.1,0.3,0.2,0.7,0.3,1C246.9,110.2,246.8,109.9,246.6,109.6z M237.8,85.6c-0.4-0.1-0.8,0-1.2,0.2c0.5,0.9,0.9,1.8,1.4,2.7
	C239.1,88,239.5,86,237.8,85.6z M256.6,150.9c0.5-0.6,0.3-1.6-0.3-2.1C256.4,149.5,256.5,150.2,256.6,150.9z M247.7,68.8
	c-0.5-0.9-1-1.8-1.5-2.6C245.1,67.2,246.1,69.4,247.7,68.8z M246.8,75.7c-1.9,0.6-0.9,3.6,1,2.9C249.7,78,248.7,75.1,246.8,75.7z
	 M245.6,69.8c-1.6-0.4-2.6,1.8-1.3,2.8C246.3,74,248,70.4,245.6,69.8z M256.7,95.4c-1.9,0.6-0.9,3.6,1,2.9
	C259.6,97.7,258.6,94.7,256.7,95.4z M249.7,74.7c0.4-0.1,0.7-0.4,0.8-0.7c-0.4-0.8-0.8-1.5-1.2-2.3c-0.2,0-0.4,0-0.6,0.1
	C246.8,72.4,247.8,75.4,249.7,74.7z M254.7,89.5c-1.9,0.6-0.9,3.6,1,2.9C257.6,91.8,256.6,88.8,254.7,89.5z M250.7,77.7
	c-1.9,0.6-0.9,3.6,1,2.9C253.6,80,252.6,77,250.7,77.7z M252.7,83.6c-1.9,0.6-0.9,3.6,1,2.9C255.6,85.9,254.6,82.9,252.7,83.6z
	 M252.3,96.1c1.4,1.1,3.3-0.8,2.2-2.2C253,92.1,250.5,94.8,252.3,96.1z M255.7,102.3c1.9-0.6,0.9-3.6-1-2.9
	C252.8,100,253.8,102.9,255.7,102.3z M257.6,105.2c-1.6-0.4-2.6,1.8-1.3,2.8C258.3,109.3,259.9,105.7,257.6,105.2z M249.6,81.6
	c-1.6-0.4-2.6,1.8-1.3,2.8C250.3,85.8,252,82.1,249.6,81.6z M251.7,90.5c1.9-0.6,0.9-3.6-1-2.9C248.8,88.2,249.8,91.1,251.7,90.5z
	 M261.5,117c-1.6-0.4-2.6,1.8-1.3,2.8C262.2,121.1,263.9,117.5,261.5,117z M263.7,125.8c1.9-0.6,0.9-3.6-1-2.9
	C260.8,123.5,261.8,126.5,263.7,125.8z M258.7,111.1c-1.9,0.6-0.9,3.6,1,2.9C261.6,113.4,260.6,110.5,258.7,111.1z M243.8,66.9
	c1.9-0.6,0.9-3.6-1-2.9C240.9,64.6,241.9,67.5,243.8,66.9z M261.6,100.3c0.2-0.1,0.3-0.2,0.5-0.3c-0.3-0.9-0.7-1.8-1-2.7
	c-0.1,0-0.3,0-0.5,0.1C258.7,98,259.7,100.9,261.6,100.3z M263.3,106.2c0.3,0,0.6-0.2,0.8-0.3c-0.3-0.9-0.6-1.7-0.9-2.7
	c-0.1,0-0.1,0-0.2,0C260.9,103.4,261.3,106.5,263.3,106.2z M258.7,101.3c-1.9,0.6-0.9,3.6,1,2.9
	C261.6,103.6,260.6,100.6,258.7,101.3z M267.3,118c0.3,0,0.5-0.1,0.7-0.3c-0.3-0.9-0.6-1.9-0.9-2.8c-0.1,0-0.1,0-0.2,0
	C264.9,115.2,265.3,118.3,267.3,118z M265.3,112.1c0.3,0,0.6-0.2,0.8-0.4c-0.4-1.1-0.7-2-0.9-2.7c-0.1,0-0.1,0-0.1,0
	C263,109.1,263.2,112.4,265.3,112.1z M271.1,129.8c-0.2-1-0.4-1.9-0.7-2.9C269.1,127.5,269.4,129.8,271.1,129.8z M259.3,94.4
	c0.3,0,0.5-0.1,0.6-0.2c-0.4-1-0.8-1.9-1.2-2.8C257,91.8,257.4,94.7,259.3,94.4z M257.6,88.5c-0.4-0.9-0.8-1.9-1.3-2.8
	C254.9,86.5,255.9,89,257.6,88.5z M269.6,123.8C269.6,123.8,269.6,123.8,269.6,123.8c-0.2-1-0.5-2-0.7-3c-0.1,0-0.2,0-0.3,0
	C266.7,121.5,267.7,124.5,269.6,123.8z M262.7,113c-1.9,0.6-0.9,3.6,1,2.9C265.6,115.4,264.6,112.4,262.7,113z M264.6,118.9
	c-1.9,0.6-0.9,3.6,1,2.9C267.5,121.2,266.5,118.3,264.6,118.9z M260.7,107.2c-1.9,0.6-0.9,3.6,1,2.9
	C263.6,109.5,262.6,106.5,260.7,107.2z M266.6,124.8c-1.9,0.6-0.9,3.6,1,2.9C269.5,127.1,268.5,124.2,266.6,124.8z M255,82.6
	c-0.4-0.8-0.7-1.5-1.1-2.3C253.4,81.2,253.8,82.5,255,82.6z M268.6,130.7c-1.9,0.6-0.9,3.6,1,2.9C271.5,133,270.5,130.1,268.6,130.7
	z M270.6,136.6c-1.9,0.6-0.9,3.6,1,2.9C273.5,138.9,272.5,136,270.6,136.6z M242.6,60.3c-0.4-0.7-0.9-1.4-1.3-2
	c-0.2-0.1-0.3-0.1-0.5-0.2c-1,0.4-1.6,1.8-0.5,2.7C241.2,61.4,242.2,61,242.6,60.3z M240.8,67.9c-1.9,0.6-0.9,3.6,1,2.9
	C243.7,70.2,242.7,67.2,240.8,67.9z M248.8,91.5c-1.9,0.6-0.9,3.6,1,2.9C251.7,93.8,250.7,90.8,248.8,91.5z M233.9,57.1
	c0.5-0.2,0.7-0.4,0.9-0.8c-1-0.3-1.9-0.5-2.9-0.8C231.9,56.5,232.7,57.5,233.9,57.1z M235.6,63.1c2-0.2,1.6-3.3-0.4-3.1
	C233.2,60.2,233.6,63.3,235.6,63.1z M238.8,62c-1.9,0.6-0.9,3.6,1,2.9C241.7,64.3,240.8,61.3,238.8,62z M242.8,73.8
	c-1.9,0.6-0.9,3.6,1,2.9C245.7,76.1,244.7,73.1,242.8,73.8z M246.8,85.6c-1.9,0.6-0.9,3.6,1,2.9C249.7,87.9,248.7,84.9,246.8,85.6z
	 M244.8,79.7c-1.9,0.6-0.9,3.6,1,2.9C247.7,82,246.7,79,244.8,79.7z M237.9,59c0.8-0.3,1.1-0.9,1-1.6c-0.9-0.3-1.8-0.5-2.7-0.8
	C235.4,57.7,236.3,59.6,237.9,59z M247.1,95.3c-2,0.2-1.6,3.3,0.4,3.1C249.5,98.2,249.1,95.1,247.1,95.3z M266.4,129.3
	c-1.4-1.8-4,0.8-2.2,2.2C265.6,132.6,267.5,130.7,266.4,129.3z M237.9,68.9c1.9-0.6,0.9-3.6-1-2.9C235,66.6,236,69.5,237.9,68.9z
	 M251.1,107.1c-2,0.2-1.6,3.3,0.4,3.1C253.5,110,253.1,106.9,251.1,107.1z M243.5,86.6c2-0.2,1.6-3.3-0.4-3.1
	C241.2,83.8,241.5,86.9,243.5,86.6z M239.2,71.8c-2,0.2-1.6,3.3,0.4,3.1C241.6,74.6,241.2,71.5,239.2,71.8z M245.8,92.5
	c1.9-0.6,0.9-3.6-1-2.9C242.9,90.2,243.9,93.1,245.8,92.5z M249.8,104.3c1.9-0.6,0.9-3.6-1-2.9C246.9,101.9,247.9,104.9,249.8,104.3
	z M268.7,150.4c-1.9,0.6-0.9,3.6,1,2.9C271.6,152.7,270.6,149.8,268.7,150.4z M257.8,127.8c1.9-0.6,0.9-3.6-1-2.9
	C254.9,125.5,255.8,128.5,257.8,127.8z M270.7,156.3c-1.9,0.6-0.9,3.6,1,2.9C273.6,158.6,272.6,155.7,270.7,156.3z M268.2,143.3
	c1.7,1.2,3.5-1.5,1.7-2.6C268.3,139.7,266.6,142.2,268.2,143.3z M272.2,155.1c1.7,1.2,3.5-1.5,1.7-2.6
	C272.3,151.5,270.6,154,272.2,155.1z M267.6,137.6c1.9-0.6,0.9-3.6-1-2.9C264.7,135.3,265.7,138.3,267.6,137.6z M250.8,97.4
	c-1.9,0.6-0.9,3.6,1,2.9C253.7,99.7,252.7,96.7,250.8,97.4z M266.7,144.5c-1.9,0.6-0.9,3.6,1,2.9
	C269.6,146.8,268.6,143.9,266.7,144.5z M270.6,146.5c-1.9,0.6-0.9,3.6,1,2.9C273.5,148.8,272.5,145.8,270.6,146.5z M254.7,109.1
	c-1.9,0.6-0.9,3.6,1,2.9C257.7,111.5,256.7,108.5,254.7,109.1z M256.7,115c-1.9,0.6-0.9,3.6,1,2.9
	C259.6,117.3,258.6,114.4,256.7,115z M252.8,103.3c-1.9,0.6-0.9,3.6,1,2.9C255.7,105.6,254.7,102.6,252.8,103.3z M258.7,120.9
	c-1.9,0.6-0.9,3.6,1,2.9C261.6,123.2,260.6,120.3,258.7,120.9z M262.7,132.7c-1.9,0.6-0.9,3.6,1,2.9
	C265.6,135,264.6,132.1,262.7,132.7z M260.7,126.8c-1.9,0.6-0.9,3.6,1,2.9C263.6,129.1,262.6,126.2,260.7,126.8z M264.7,138.6
	c-1.9,0.6-0.9,3.6,1,2.9C267.6,140.9,266.6,138,264.7,138.6z M29.6,130.4c-1.4-1.8-4,0.8-2.2,2.2C28.9,133.6,30.7,131.8,29.6,130.4z
	 M53.8,216.3c-1.9,0.6-0.9,3.6,1,2.9C56.7,218.6,55.7,215.7,53.8,216.3z M55.8,222.2c-1.9,0.6-0.9,3.6,1,2.9
	C58.7,224.5,57.7,221.6,55.8,222.2z M51.8,210.4c-1.9,0.6-0.9,3.6,1,2.9C54.7,212.7,53.7,209.8,51.8,210.4z M47.8,198.6
	c-1.9,0.6-0.9,3.6,1,2.9C50.7,200.9,49.7,198,47.8,198.6z M49.8,204.5c-1.9,0.6-0.9,3.6,1,2.9C52.7,206.8,51.7,203.9,49.8,204.5z
	 M58.7,221.2c1.9-0.6,0.9-3.6-1-2.9C55.8,218.9,56.8,221.9,58.7,221.2z M25.9,133.8c-1.9,0.6-0.9,3.6,1,2.9
	C28.8,136.1,27.8,133.2,25.9,133.8z M25.9,129.2c-0.4,0.6-0.8,1.1-1.2,1.7c0.1,0,0.1,0,0.2,0C25.8,130.6,26,129.9,25.9,129.2z
	 M31.9,151.5c-1.9,0.6-0.9,3.6,1,2.9C34.8,153.8,33.8,150.8,31.9,151.5z M35.9,163.3c-1.9,0.6-0.9,3.6,1,2.9
	C38.8,165.6,37.8,162.6,35.9,163.3z M33.9,157.4c-1.9,0.6-0.9,3.6,1,2.9C36.8,159.7,35.8,156.7,33.9,157.4z M37.9,169.2
	c-1.9,0.6-0.9,3.6,1,2.9C40.8,171.5,39.8,168.5,37.9,169.2z M45.8,192.7c-1.9,0.6-0.9,3.6,1,2.9C48.7,195.1,47.7,192.1,45.8,192.7z
	 M57.4,212.9c-1.4-1.8-4,0.8-2.2,2.2C56.7,216.2,58.6,214.3,57.4,212.9z M43.8,186.9c-1.9,0.6-0.9,3.6,1,2.9
	C46.7,189.2,45.7,186.2,43.8,186.9z M39.9,175.1c-1.9,0.6-0.9,3.6,1,2.9C42.7,177.4,41.8,174.4,39.9,175.1z M41.8,181
	c-1.9,0.6-0.9,3.6,1,2.9C44.7,183.3,43.7,180.3,41.8,181z M41.8,171.1c-1.9,0.6-0.9,3.6,1,2.9C44.7,173.4,43.7,170.5,41.8,171.1z
	 M54.7,209.4c1.9-0.6,0.9-3.6-1-2.9C51.8,207.1,52.8,210.1,54.7,209.4z M45.8,182.9c-1.9,0.6-0.9,3.6,1,2.9
	C48.7,185.2,47.7,182.3,45.8,182.9z M29.9,145.6c-1.9,0.6-0.9,3.6,1,2.9C32.8,147.9,31.8,144.9,29.9,145.6z M44.7,177
	c-1.6-0.4-2.6,1.8-1.3,2.8C45.4,181.1,47,177.5,44.7,177z M48.6,188.8c-1.6-0.4-2.6,1.8-1.3,2.8C49.3,192.9,51,189.3,48.6,188.8z
	 M29.9,125.9c-1.9,0.6-0.9,3.6,1,2.9C32.8,128.2,31.8,125.3,29.9,125.9z M274.1,160.9c0.4-0.6,0.9-1.2,1.3-1.8
	c0-0.3-0.1-0.6-0.1-0.9c-0.2,0-0.4,0-0.7,0.1C273.3,158.7,273.4,160.1,274.1,160.9z M59.3,226.9c1.7,1.2,3.5-1.5,1.7-2.6
	C59.4,223.3,57.7,225.8,59.3,226.9z M50.8,197.6c1.9-0.6,0.9-3.6-1-2.9C47.9,195.3,48.9,198.3,50.8,197.6z M41.5,165.7
	c-1.4-1.8-4,0.8-2.2,2.2C40.8,169,42.7,167.1,41.5,165.7z M53.5,201.1c-1.4-1.8-4,0.8-2.2,2.2C52.7,204.4,54.6,202.5,53.5,201.1z
	 M29.9,135.8c-1.9,0.6-0.9,3.6,1,2.9C32.8,138.1,31.8,135.1,29.9,135.8z M33.9,147.5c-1.9,0.6-0.9,3.6,1,2.9
	C36.8,149.8,35.8,146.9,33.9,147.5z M38.8,162.3c1.9-0.6,0.9-3.6-1-2.9C35.9,160,36.9,162.9,38.8,162.3z M32.7,141.6
	c-1.6-0.4-2.6,1.8-1.3,2.8C33.4,145.8,35.1,142.2,32.7,141.6z M36.7,153.4c-1.6-0.4-2.6,1.8-1.3,2.8C37.4,157.6,39.1,154,36.7,153.4
	z M65.6,232c-1.1,0.4-1.2,1.6-0.7,2.3c0.6,0.2,1.3,0.3,1.9,0.5C68.4,234,67.5,231.4,65.6,232z M30,165.3c-0.2,0.1-0.3,0.2-0.4,0.2
	c0.2,0.9,0.5,1.9,0.7,2.8c0.2,0,0.4,0,0.7-0.1C32.9,167.6,31.9,164.6,30,165.3z M33.9,177.1c-0.4,0.1-0.7,0.4-0.8,0.7
	c0.3,0.9,0.5,1.6,0.7,2.2c0.3,0.1,0.7,0.2,1.1,0.1C36.8,179.4,35.8,176.4,33.9,177.1z M31.9,171.2c-0.3,0.1-0.6,0.3-0.7,0.6
	c0.2,0.8,0.5,1.6,0.7,2.4c0.3,0.1,0.6,0.1,1,0C34.8,173.5,33.9,170.5,31.9,171.2z M28.1,159.4c0.2,1,0.4,2,0.7,3c0,0,0.1,0,0.1,0
	C30.8,161.7,29.9,159,28.1,159.4z M41.9,200.6c-0.2,0.1-0.3,0.2-0.5,0.3c0.4,0.9,0.8,1.8,1.2,2.7c0.1,0,0.2,0,0.3,0
	C44.8,202.9,43.8,200,41.9,200.6z M39.9,194.7c-0.4,0.1-0.6,0.3-0.8,0.6c0.3,0.8,0.6,1.6,1,2.4c0.2,0,0.5,0,0.8,0
	C42.8,197,41.8,194.1,39.9,194.7z M47.8,214.4c0.2-0.8-0.2-1.7-1-2C47.1,213.1,47.5,213.7,47.8,214.4z M35.9,183
	c-0.4,0.1-0.7,0.4-0.8,0.7c0.2,0.6,0.4,1.3,0.7,2.2c0.3,0.1,0.7,0.2,1.1,0.1C38.8,185.3,37.8,182.3,35.9,183z M37.9,188.8
	c-0.4,0.1-0.7,0.4-0.8,0.7l0.1,0.2c0.2,0.7,0.5,1.3,0.7,2c0.3,0.1,0.7,0.2,1.1,0C40.8,191.2,39.8,188.2,37.9,188.8z M69.9,233.9
	c-0.9,0.1-1.2,0.7-1.3,1.4c0.9,0.2,1.9,0.5,2.9,0.7C71.8,235,71.2,233.7,69.9,233.9z M73.5,235.9c-0.3,0.1-0.5,0.3-0.6,0.4
	c0.8,0.2,1.7,0.4,2.5,0.6C75.2,236.2,74.5,235.6,73.5,235.9z M82.8,238.3c0.5,0.1,0.9,0.2,1.4,0.3c-0.5-0.6-1-1.3-1.5-2.1
	C82.3,237.1,82.4,237.8,82.8,238.3z M54.3,226.1c0.4,0.7,0.9,1.5,1.3,2.2C56,227.4,55.5,226.1,54.3,226.1z M52.2,220.2
	c-0.5,0-0.8,0.2-1,0.5c0.5,0.9,1,1.7,1.4,2.6C54.4,222.8,54.1,220.1,52.2,220.2z M57.7,228.1c-1.9,0.6-0.9,3.6,1,2.9
	C60.6,230.4,59.6,227.5,57.7,228.1z M31.8,131.8c-1.9,0.6-0.9,3.6,1,2.9C34.7,134.1,33.8,131.2,31.8,131.8z M46.1,202.5
	c-2,0.2-1.6,3.3,0.4,3.1C48.5,205.4,48.1,202.3,46.1,202.5z M34.2,167.1c-2,0.2-1.6,3.3,0.4,3.1C36.6,170,36.2,166.9,34.2,167.1z
	 M27.9,139.7c-1.9,0.6-0.9,3.6,1,2.9C30.8,142,29.8,139.1,27.9,139.7z M30.6,158.4c2-0.2,1.6-3.3-0.4-3.1
	C28.3,155.6,28.6,158.7,30.6,158.4z M38.2,178.9c-2,0.2-1.6,3.3,0.4,3.1C40.6,181.8,40.2,178.7,38.2,178.9z M36.9,176.1
	c1.9-0.6,0.9-3.6-1-2.9C34,173.8,35,176.7,36.9,176.1z M48.2,208.4c-2.1,0.1-1.8,3.4,0.3,3.1C50.4,211.3,50.2,208.3,48.2,208.4z
	 M43.9,206.5c0.4,0.9,0.9,1.8,1.3,2.7C46.6,208.4,45.6,206,43.9,206.5z M32.9,164.3c1.9-0.6,0.9-3.6-1-2.9
	C30,162,31,164.9,32.9,164.3z M50.1,214.3c-2,0.2-1.6,3.3,0.4,3.1C52.5,217.2,52.1,214.1,50.1,214.3z M26.3,143.6
	c-0.3,0-0.5,0.2-0.7,0.3c0.1,0.9,0.2,1.8,0.4,2.7c0.2,0.1,0.5,0.1,0.8,0.1C28.6,146.4,28.3,143.3,26.3,143.6z M24.8,137.7
	c0.1,1,0.2,1.9,0.3,2.9C26.5,140,26.1,138,24.8,137.7z M27,153.5c0.2,0.9,0.3,1.7,0.5,2.6C28.4,155.4,28,153.9,27,153.5z
	 M40.3,184.8c-2.1,0.1-1.8,3.4,0.3,3.1C42.5,187.7,42.2,184.7,40.3,184.8z M28.4,149.5c-2.1,0.1-1.8,3.4,0.3,3.1
	C30.6,152.3,30.3,149.3,28.4,149.5z M42.2,190.7c-2,0.2-1.6,3.3,0.4,3.1C44.5,193.6,44.2,190.5,42.2,190.7z M44.3,196.6
	c-2.1,0.1-1.8,3.4,0.3,3.1C46.5,199.5,46.2,196.5,44.3,196.6z M61.7,230.1c-1.9,0.6-0.9,3.6,1,2.9C64.6,232.4,63.6,229.4,61.7,230.1
	z M51.6,177c-0.2-0.6-0.4-1.2-0.6-1.8c-0.3-0.2-0.6-0.3-1-0.2c-2,0.2-1.6,3.3,0.4,3.1C51.1,178,51.5,177.5,51.6,177z M45.2,153.7
	c-0.9,0.8-0.5,2.3,0.5,2.6C45.5,155.4,45.4,154.6,45.2,153.7z M52.4,183.9c0.7-0.1,1.1-0.5,1.2-1c-0.2-0.7-0.4-1.3-0.6-1.9
	c-0.2-0.1-0.5-0.3-0.9-0.2C50,181,50.3,184.2,52.4,183.9z M33.8,137.7c-1.9,0.6-0.9,3.6,1,2.9C36.7,140,35.7,137.1,33.8,137.7z
	 M44.1,147.5c-0.1,0-0.2,0-0.3,0c-1.9,0.6-1,3.4,0.9,3C44.4,149.5,44.2,148.5,44.1,147.5z M39.7,135.7c-1.9,0.6-0.9,3.6,1,2.9
	C42.6,138,41.7,135.1,39.7,135.7z M64.6,209.4c0.2-0.1,0.4-0.2,0.6-0.3c-0.5-0.9-0.9-1.8-1.4-2.6c0,0-0.1,0-0.1,0
	C61.7,207.1,62.7,210,64.6,209.4z M37.8,129.8c-1.9,0.6-0.9,3.6,1,2.9C40.7,132.1,39.7,129.2,37.8,129.8z M40.2,145.5
	c-2.1,0.1-1.8,3.4,0.3,3.1C42.4,148.3,42.1,145.4,40.2,145.5z M32.8,124.9c1.9-0.6,0.9-3.6-1-2.9c-0.2,0.1-0.4,0.2-0.6,0.3
	c0,0,0,0.1-0.1,0.1C30.2,123.4,31.2,125.5,32.8,124.9z M34.5,130.9c2-0.2,1.6-3.3-0.4-3.1C32.1,128,32.5,131.1,34.5,130.9z
	 M36.8,136.7c1.9-0.6,0.9-3.6-1-2.9C33.9,134.4,34.9,137.3,36.8,136.7z M62.3,203.5c-0.4-0.9-0.9-1.7-1.3-2.6
	C60.1,201.9,60.9,203.7,62.3,203.5z M46,163.2c-2,0.2-1.6,3.3,0.4,3.1c0.9-0.1,1.3-0.9,1.3-1.6c-0.1-0.2-0.1-0.5-0.2-0.7
	C47.3,163.4,46.8,163.1,46,163.2z M44.7,160.3c1.9-0.6,0.9-3.6-1-2.9C41.8,158,42.8,160.9,44.7,160.3z M38.1,139.6
	c-2,0.2-1.6,3.3,0.4,3.1C40.5,142.4,40.1,139.3,38.1,139.6z M42.4,154.5c2-0.2,1.6-3.3-0.4-3.1C40.1,151.6,40.4,154.7,42.4,154.5z
	 M66.6,215.3c1.1-0.4,1.2-1.5,0.7-2.3c0-0.1-0.1-0.1-0.1-0.2c-0.4-0.5-0.9-0.7-1.6-0.5C63.7,213,64.7,215.9,66.6,215.3z M46.9,161.5
	c-0.1-0.3-0.2-0.6-0.2-0.9C46.7,160.9,46.8,161.2,46.9,161.5z M35.8,123.9c-1.9,0.6-0.9,3.6,1,2.9C38.7,126.2,37.7,123.3,35.8,123.9
	z M34.8,121c1.5-0.5,1.2-2.5,0-2.9c-0.6,0.7-1.2,1.4-1.8,2.2C33.3,120.8,33.9,121.3,34.8,121z M81,234.3c-0.4-0.4-0.9-0.6-1.6-0.4
	c-1.9,0.6-0.9,3.6,1,2.9c1.1-0.4,1.2-1.5,0.8-2.3C81.2,234.5,81.1,234.4,81,234.3z M274.6,151.3c-0.1-0.9-0.2-1.8-0.3-2.7
	C273.1,149.3,273.5,150.9,274.6,151.3z M273.6,145.5c0.1,0,0.1-0.1,0.2-0.1c-0.1-0.9-0.3-1.9-0.4-2.9c-0.2-0.1-0.5-0.1-0.8,0
	C270.7,143.2,271.7,146.1,273.6,145.5z M272.2,135.4c-0.1-0.7-0.3-1.4-0.4-2.1C271.4,134,271.6,135,272.2,135.4z M38.7,122.9
	c1.9-0.6,0.9-3.6-1-2.9C35.8,120.6,36.8,123.6,38.7,122.9z M41.4,122.1c-1.1,0.6-0.8,2.2,0.2,2.7C41.5,123.9,41.5,123,41.4,122.1z
	 M42.1,131.7c-0.1,0-0.2,0-0.4,0c-1.8,0.6-1,3.2,0.7,3C42.3,133.7,42.2,132.7,42.1,131.7z M40.7,119c0.2-0.1,0.4-0.2,0.6-0.3
	c0-0.8-0.1-1.6-0.1-2.3c-0.4-0.3-0.9-0.5-1.5-0.3C37.8,116.7,38.8,119.6,40.7,119z M41.8,127.5c0-0.2,0-0.4,0-0.6
	c-0.1-0.2-0.1-0.3-0.3-0.5c-1.4-1.8-4,0.8-2.2,2.2C40.3,129.4,41.6,128.6,41.8,127.5z M78.5,231c0.1,0,0.1-0.1,0.2-0.1
	c-0.6-0.8-1.1-1.7-1.7-2.5C75.8,229.3,76.8,231.5,78.5,231z M37.6,114.8c-0.7,0.7-1.3,1.5-1.9,2.2C37,117.6,38.2,115.9,37.6,114.8z
	 M43,140.1c-0.1-0.5-0.1-1.1-0.2-1.6C42.6,139,42.6,139.6,43,140.1z M43.3,142c-0.4-0.4-0.9-0.6-1.5-0.4c-1.9,0.6-0.9,3.6,1,2.9
	c0.4-0.1,0.6-0.4,0.8-0.6C43.4,143.3,43.3,142.6,43.3,142z M53.7,196.6c-1.9,0.6-0.9,3.6,1,2.9C56.6,199,55.6,196,53.7,196.6z
	 M57.7,208.4c-1.9,0.6-0.9,3.6,1,2.9C60.6,210.7,59.6,207.8,57.7,208.4z M55.7,202.5c-1.9,0.6-0.9,3.6,1,2.9
	C58.6,204.8,57.6,201.9,55.7,202.5z M51.7,190.8c-1.9,0.6-0.9,3.6,1,2.9C54.6,193.1,53.6,190.1,51.7,190.8z M59.7,214.3
	c-1.9,0.6-0.9,3.6,1,2.9C62.6,216.6,61.6,213.7,59.7,214.3z M61.7,220.2c-1.9,0.6-0.9,3.6,1,2.9C64.6,222.5,63.6,219.6,61.7,220.2z
	 M63.7,226.1c-1.9,0.6-0.9,3.6,1,2.9C66.6,228.4,65.6,225.5,63.7,226.1z M49.7,184.9c-1.9,0.6-0.9,3.6,1,2.9
	C52.6,187.2,51.6,184.2,49.7,184.9z M43.8,167.2c-1.9,0.6-0.9,3.6,1,2.9C46.7,169.5,45.7,166.5,43.8,167.2z M37.8,149.5
	c-1.9,0.6-0.9,3.6,1,2.9C40.7,151.8,39.7,148.8,37.8,149.5z M35.8,143.6c-1.9,0.6-0.9,3.6,1,2.9C38.7,145.9,37.7,143,35.8,143.6z
	 M39.8,155.4c-1.9,0.6-0.9,3.6,1,2.9C42.7,157.7,41.7,154.7,39.8,155.4z M41.8,161.3c-1.9,0.6-0.9,3.6,1,2.9
	C44.7,163.6,43.7,160.6,41.8,161.3z M47.8,179c-1.9,0.6-0.9,3.6,1,2.9C50.7,181.3,49.7,178.3,47.8,179z M45.8,173.1
	c-1.9,0.6-0.9,3.6,1,2.9C48.7,175.4,47.7,172.4,45.8,173.1z M41.1,112.5c-0.6,0.6-0.5,1.7,0,2.2C41.1,113.9,41.1,113.2,41.1,112.5z
	 M68,228c-2.1,0.1-1.8,3.4,0.3,3.1C70.2,230.8,70,227.9,68,228z M64,216.2c-2.1,0.1-1.8,3.4,0.3,3.1C66.3,219.1,66,216.1,64,216.2z
	 M54.4,189.8c0.8-0.1,1.2-0.6,1.3-1.2c-0.2-0.6-0.4-1.1-0.6-1.7c-0.3-0.2-0.6-0.3-1-0.3C52,187,52.4,190.1,54.4,189.8z M62,210.3
	c-2,0.2-1.6,3.3,0.4,3.1C64.3,213.2,64,210.1,62,210.3z M60.1,204.4c-2.1,0.1-1.8,3.4,0.3,3.1C62.3,207.3,62,204.3,60.1,204.4z
	 M65.9,222.1c-2,0.2-1.6,3.3,0.4,3.1C68.3,224.9,67.9,221.9,65.9,222.1z M56.7,195.7c1.9-0.6,0.9-3.6-1-2.9
	C53.8,193.3,54.8,196.3,56.7,195.7z M73.2,222.6c-0.5-0.8-1-1.6-1.5-2.5c-1.1,0.4-1.6,1.9-0.5,2.7C71.9,223.5,72.7,223.2,73.2,222.6
	z M48.7,172.1c0.5-0.2,0.8-0.5,0.9-0.9c-0.2-0.6-0.4-1.2-0.6-1.8c-0.3-0.3-0.8-0.4-1.4-0.2C45.8,169.8,46.8,172.7,48.7,172.1z
	 M58,198.5c-2,0.2-1.6,3.3,0.4,3.1C60.3,201.4,60,198.3,58,198.5z M75.1,234.7c1.7,1.2,3.5-1.5,1.7-2.6
	C75.2,231.1,73.5,233.5,75.1,234.7z M69.9,217.3c-0.4-0.7-0.8-1.4-1.3-2.1C68.3,216.1,68.9,217.2,69.9,217.3z M73.5,226.1
	c-1.9,0.6-0.9,3.6,1,2.9C76.4,228.4,75.4,225.4,73.5,226.1z M67.6,218.2c-1.9,0.6-0.9,3.6,1,2.9C70.5,220.5,69.5,217.6,67.6,218.2z
	 M69.6,224.1c-1.9,0.6-0.9,3.6,1,2.9C72.5,226.4,71.5,223.5,69.6,224.1z M59.4,197.5c-0.2-0.5-0.5-1.1-0.7-1.6
	C58.6,196.5,58.8,197.1,59.4,197.5z M71.6,230c-1.9,0.6-0.9,3.6,1,2.9C74.5,232.3,73.5,229.4,71.6,230z"/>
<g class="st7">
	<linearGradient id="SVGID_5_" gradientUnits="userSpaceOnUse" x1="143.0737" y1="184.2805" x2="143.0737" y2="68.4171">
		<stop  offset="0" style="stop-color:#B7AB85"/>
		<stop  offset="8.744784e-02" style="stop-color:#C2B898"/>
		<stop  offset="0.3561" style="stop-color:#E3DED0"/>
		<stop  offset="0.5566" style="stop-color:#F7F6F2"/>
		<stop  offset="0.6648" style="stop-color:#FFFFFF"/>
		<stop  offset="0.7832" style="stop-color:#FDFDFC"/>
		<stop  offset="0.8681" style="stop-color:#F8F7F3"/>
		<stop  offset="0.9422" style="stop-color:#EFECE3"/>
		<stop  offset="1" style="stop-color:#E4E0D1"/>
	</linearGradient>
	<path class="st8" d="M144.6,129.4c-1.2-0.7-2.6,0.9-1.7,2C144.3,133,146.5,130.4,144.6,129.4z M138.1,126.9
		c1.7,0.2,2.1-2.3,0.5-2.6C136.8,123.9,136.3,126.7,138.1,126.9z M141.6,134.8c1.7-0.1,1.5-2.8-0.2-2.7
		C139.7,132.2,139.9,134.9,141.6,134.8z M138.8,137.6c1.7,0.2,2.1-2.3,0.5-2.6C137.5,134.6,137.1,137.4,138.8,137.6z M138.5,132.3
		c1.7,0.2,2.1-2.4,0.4-2.6C137.1,129.4,136.8,132,138.5,132.3z M125.5,134.4c-1.7-0.4-2.2,2.4-0.5,2.6
		C126.7,137.3,127.2,134.7,125.5,134.4z M133,131.2c-1.7,0.1-1.5,2.8,0.2,2.7C134.9,133.7,134.7,131,133,131.2z M130.9,128.8
		c-1.2-0.7-2.6,0.9-1.7,2C130.5,132.5,132.7,129.8,130.9,128.8z M130.5,134c-1.7,0.1-1.5,2.8,0.2,2.7
		C132.4,136.6,132.2,133.9,130.5,134z M127.7,131.5c-1.7,0.1-1.5,2.8,0.2,2.7C129.6,134.1,129.4,131.4,127.7,131.5z M160.1,121.7
		c0,0.1,0,0.1,0,0.2c0.2,0.2,0.5,0.3,0.9,0.3c1.5-0.1,1.6-2.2,0.3-2.6c-0.2-0.3-0.6-0.5-1.1-0.5
		C158.7,119.2,158.7,121.5,160.1,121.7z M169.2,124.3c1.7-0.1,1.5-2.8-0.2-2.7C167.3,121.7,167.5,124.4,169.2,124.3z M166.7,127.1
		c1.7-0.1,1.5-2.8-0.2-2.7C164.8,124.6,165,127.3,166.7,127.1z M157.9,124.6c1.7-0.1,1.5-2.8-0.2-2.7
		C156,122,156.2,124.7,157.9,124.6z M163.1,129.5c0.2,0.3,0.5,0.5,0.9,0.5c1.6,0.2,2-2.2,0.6-2.6c0,0,0,0,0,0
		c-0.2-0.2-0.4-0.4-0.8-0.4C162.2,126.7,161.7,128.9,163.1,129.5z M146.6,129.1c1.7-0.1,1.5-2.8-0.2-2.7
		C144.7,126.5,144.9,129.2,146.6,129.1z M148.8,126.2c0.1,0,0.2,0,0.3,0c0,0.4,0.1,0.9,0.1,1.3c0.2,0.2,0.5,0.3,0.9,0.3
		c1.7-0.1,1.5-2.6,0-2.7c0-0.4-0.1-0.8-0.1-1.2c-0.2-0.2-0.4-0.3-0.7-0.4C147.5,123.2,147.1,126,148.8,126.2z M158.1,116.7
		c-1.2-0.7-2.6,0.9-1.7,2C157.8,120.4,160,117.7,158.1,116.7z M152.3,124.9c1.7,0.2,2.1-2.3,0.5-2.6
		C151,121.9,150.5,124.7,152.3,124.9z M155.1,122.1c1.7-0.1,1.5-2.8-0.2-2.7C153.2,119.5,153.4,122.2,155.1,122.1z M160.5,127
		c0,0.1,0,0.1,0,0.2c0.2,0.2,0.5,0.3,0.9,0.3c1.5-0.1,1.6-2.2,0.3-2.6c-0.2-0.3-0.6-0.5-1.1-0.5C159,124.5,159.1,126.8,160.5,127z
		 M124.7,131.7c1.7,0.2,2.1-2.4,0.4-2.6C123.4,128.8,123,131.5,124.7,131.7z M130,126c1.7-0.1,1.5-2.8-0.2-2.7
		C128.1,123.5,128.3,126.1,130,126z M152.7,130.3c1.7,0.2,2.1-2.4,0.4-2.6C151.3,127.4,150.9,130,152.7,130.3z M122.7,126.8
		c-0.5,0.3-1.1,0.6-1.6,1c0,0.4,0.1,0.8,0.1,1.2c0.2,0.2,0.5,0.3,0.9,0.3C123.5,129.1,123.7,127.4,122.7,126.8z M125.8,124.9
		c-0.7,0.4-1.3,0.8-2,1.2c0.2,0.2,0.5,0.3,0.8,0.2C125.5,126.3,125.9,125.6,125.8,124.9z M140,110.8c-1.7,0.1-1.5,2.8,0.2,2.7
		C141.9,113.3,141.7,110.6,140,110.8z M141.5,110.1c1,1.2,2.9,0,2.3-1.4C143,106.9,140.3,108.5,141.5,110.1z M119.7,128.6
		c-0.7,0.4-1.5,0.9-2.2,1.4c0.2,0.3,0.6,0.6,1.1,0.5C119.7,130.4,120.1,129.4,119.7,128.6z M131.1,121.6c-0.1,0.8,0.4,1.6,1.4,1.5
		c1.5-0.1,1.6-2.2,0.4-2.6C132.3,120.9,131.7,121.3,131.1,121.6z M136.2,117.2c-0.1,0.8-0.7,1.8-1.4,2.2c-0.3,0.2-0.6,0.4-0.9,0.6
		c0.2,0.2,0.4,0.3,0.8,0.4c0.8,0.1,1.3-0.4,1.4-1c0-0.2,0-0.4,0-0.7c0,0,0,0,0,0C136.4,118.2,136.4,117.6,136.2,117.2
		C136.2,117.1,136.2,117.1,136.2,117.2z M116.5,138.7c1.7-0.1,1.5-2.8-0.2-2.7C114.6,136.1,114.8,138.8,116.5,138.7z M121.9,138.3
		c0,0.4,0.1,0.9,0.1,1.3c0.2,0.2,0.5,0.3,0.9,0.3c1.7-0.1,1.5-2.6,0-2.7c0-0.4-0.1-0.8-0.1-1.2c-0.2-0.2-0.4-0.3-0.7-0.4
		c-1.7-0.4-2.2,2.4-0.5,2.6C121.7,138.3,121.8,138.3,121.9,138.3z M114,141.5c1.7-0.1,1.5-2.8-0.2-2.7
		C112.1,139,112.3,141.6,114,141.5z M115.3,131.3c0-0.1,0-0.2-0.1-0.3c-0.5,0.4-0.8,1.2-0.2,1.9c1.3,1.6,3.5-1.1,1.7-2
		c-0.1-0.1-0.3-0.1-0.4-0.1C116,130.9,115.6,131.1,115.3,131.3z M111.6,141.7c-0.5-0.1-0.9,0.1-1.2,0.5c0,0.6,0,1.1-0.1,1.7
		c0.2,0.3,0.5,0.4,0.9,0.5C113,144.6,113.3,142,111.6,141.7z M121.2,133c0.1,0,0.2,0,0.3,0c0,0.4,0.1,0.8,0.1,1.3
		c0.2,0.2,0.5,0.3,0.9,0.3c1.7-0.1,1.5-2.6,0-2.7c0-0.4,0-0.8-0.1-1.2c-0.2-0.2-0.4-0.4-0.8-0.4C119.9,130.1,119.5,132.7,121.2,133z
		 M119,135.8c1.7-0.1,1.5-2.8-0.2-2.7C117.1,133.3,117.3,136,119,135.8z M111.3,136.4c-0.3-0.1-0.5,0-0.7,0c0,0.8-0.1,1.7-0.1,2.5
		c0.1,0,0.2,0.1,0.3,0.1C112.5,139.3,113,136.7,111.3,136.4z M113.3,130.9c1.7-0.1,1.5-2.8-0.2-2.7
		C111.4,128.3,111.6,131,113.3,130.9z M113.7,136.2c1.7-0.1,1.5-2.8-0.2-2.7C111.7,133.6,111.9,136.3,113.7,136.2z M114.6,125.9
		c-0.3,0.4-0.3,1,0,1.4C114.6,126.9,114.6,126.4,114.6,125.9z M110.1,150.2c0,0.7-0.1,1.4-0.1,2.1
		C110.7,151.8,110.7,150.7,110.1,150.2z M119.4,141.2c1.7-0.1,1.5-2.8-0.2-2.7C117.5,138.6,117.6,141.3,119.4,141.2z M119.7,146.5
		c1.7-0.1,1.5-2.8-0.2-2.7C117.8,144,118,146.6,119.7,146.5z M122,143.7c0.1,0,0.3,0,0.4,0c0.1,0.5,0.1,1,0.2,1.4
		c0.2,0.1,0.4,0.2,0.7,0.1c1.6-0.1,1.5-2.5,0-2.6c0-0.4-0.1-0.8-0.1-1.1c-0.2-0.2-0.4-0.4-0.8-0.4
		C120.6,140.8,120.2,143.4,122,143.7z M128.2,139.5c1.7-0.1,1.5-2.8-0.2-2.7C126.3,137,126.5,139.6,128.2,139.5z M125.4,142.4
		c1.7,0.2,2.1-2.4,0.4-2.6C124.1,139.5,123.7,142.1,125.4,142.4z M142.9,113.2c-1.7,0.1-1.5,2.8,0.2,2.7
		C144.8,115.8,144.6,113.1,142.9,113.2z M112,147.1c-1.7-0.4-2.2,2.4-0.5,2.6C113.3,149.9,113.7,147.4,112,147.1z M128.6,144.9
		c1.7-0.1,1.5-2.8-0.2-2.7C126.7,142.3,126.8,145,128.6,144.9z M117.4,141.5c-1.2-0.7-2.6,0.9-1.7,2
		C117.1,145.1,119.3,142.5,117.4,141.5z M114.4,146.9c1.7-0.1,1.5-2.8-0.2-2.7C112.5,144.3,112.6,147,114.4,146.9z M139.2,142.9
		c1.7,0.2,2.1-2.4,0.4-2.6C137.8,140.1,137.5,142.7,139.2,142.9z M144.3,134.6c-1.7,0.1-1.5,2.8,0.2,2.7
		C146.2,137.1,146,134.5,144.3,134.6z M141.8,137.4c-1.7,0.1-1.5,2.8,0.2,2.7C143.7,140,143.5,137.3,141.8,137.4z M147,134.4
		c1.7-0.1,1.5-2.8-0.2-2.7C145.1,131.9,145.2,134.5,147,134.4z M149.2,131.6c0.1,0,0.3,0,0.4,0c0.1,0.5,0.1,1,0.2,1.4
		c0.2,0.1,0.4,0.2,0.7,0.1c1.6-0.1,1.5-2.5,0-2.6c0-0.4-0.1-0.8-0.1-1.1c-0.2-0.2-0.4-0.4-0.8-0.4
		C147.8,128.7,147.5,131.3,149.2,131.6z M170.1,127.1c-1.2-0.7-2.6,0.9-1.7,2C169.8,130.7,172,128.1,170.1,127.1z M111.2,121.3
		c0,0.3,0,0.6,0,0.9C111.3,121.9,111.3,121.6,111.2,121.3z M136.1,132.5c-0.3,0-0.6,0.2-0.8,0.3c0,0.3,0.1,0.6,0.1,1
		c-1,0.5-1.1,2.4,0.3,2.6c0.6,0.1,1-0.2,1.2-0.6c0-0.3,0-0.6-0.1-0.9C137.8,134.1,137.5,132.4,136.1,132.5z M133.4,136.5
		c-1.7,0.1-1.5,2.8,0.2,2.7C135.3,139.1,135.1,136.4,133.4,136.5z M131.6,139.5c-1.2-0.7-2.6,0.9-1.7,2
		C131.3,143.1,133.4,140.5,131.6,139.5z M136.4,137.8c-0.2,0-0.3,0.1-0.5,0.1c0.1,0.4,0.1,0.7,0.2,1.1c-1.4,0.2-1.6,2.4,0,2.6
		c0.6,0.1,1.1-0.2,1.3-0.7c0-0.3-0.1-0.6-0.1-0.8C138.2,139.4,137.8,137.7,136.4,137.8z M148.4,115.6c0,0.5,0.1,0.9,0.1,1.3
		c0.2,0.2,0.5,0.3,0.9,0.3c1.7-0.1,1.5-2.6,0-2.6c0-0.4,0-0.7-0.1-1.1c-0.2-0.3-0.6-0.5-1.1-0.5C146.5,113,146.7,115.7,148.4,115.6z
		 M155.7,108.1c1,1.2,2.9,0,2.3-1.4C157.2,104.9,154.5,106.5,155.7,108.1z M165.1,103.1c-1.7,0.1-1.5,2.8,0.2,2.7
		C167,105.7,166.9,103,165.1,103.1z M151.7,111.6c-1.7,0.1-1.5,2.8,0.2,2.7C153.6,114.2,153.4,111.5,151.7,111.6z M154.2,108.8
		c-1.7,0.1-1.5,2.8,0.2,2.7C156.1,111.3,155.9,108.6,154.2,108.8z M159.2,103.1c-1.7,0.1-1.5,2.8,0.2,2.7c0,0,0,0,0,0
		c0,0.1,0,0.2,0,0.3c0.2,0.1,0.4,0.1,0.6,0.1c1.5-0.1,1.6-2.2,0.3-2.6C160,103.2,159.7,103,159.2,103.1z M167.6,100.3
		c-1.7,0.1-1.5,2.8,0.2,2.7C169.5,102.8,169.4,100.2,167.6,100.3z M111.1,125.9c0,0.8-0.1,1.5-0.1,2.3
		C111.9,127.8,111.8,126.4,111.1,125.9z M169.8,132.3c-1.7,0.1-1.5,2.8,0.2,2.7C171.7,134.8,171.5,132.2,169.8,132.3z M172.9,102.5
		c-0.3-0.6-0.7-1.2-1-1.8C171.6,101.5,172,102.4,172.9,102.5z M174.7,129.3c0.1,0,0.2,0,0.3,0c0-0.1,0.1-0.2,0.1-0.3
		c0.3-0.7,0.5-1.3,0.7-2c-0.2-0.2-0.4-0.3-0.7-0.4C173.3,126.4,173,129,174.7,129.3z M115.8,122.5c0.2-0.3,0.5-0.7,0.8-1
		c0-0.2,0-0.5-0.1-0.7c-0.8-1.8-3.5-0.2-2.3,1.4C114.7,122.7,115.3,122.7,115.8,122.5z M139.6,105.4c-1.7,0.1-1.5,2.8,0.2,2.7
		C141.5,108,141.4,105.3,139.6,105.4z M137.4,108.3c-0.2,0-0.3,0-0.5,0c-0.1,0.9-0.1,1.7-0.2,2.5c0.1,0,0.2,0.1,0.3,0.1
		C138.8,111.2,139.1,108.5,137.4,108.3z M112.8,122.8c-1.7,0.1-1.5,2.8,0.2,2.7C114.7,125.4,114.5,122.7,112.8,122.8z M145.4,110.4
		c-1.7,0.1-1.5,2.8,0.2,2.7C147.3,112.9,147.1,110.3,145.4,110.4z M142.1,102.6c-1.7,0.1-1.5,2.8,0.2,2.7
		C144,105.1,143.9,102.5,142.1,102.6z M145,105.1c-1.7,0.1-1.5,2.8,0.2,2.7C146.9,107.6,146.7,104.9,145,105.1z M145.7,115.7
		c-1.7,0.1-1.5,2.8,0.2,2.7C147.6,118.3,147.4,115.6,145.7,115.7z M144.6,99.7c-1.7,0.1-1.5,2.8,0.2,2.7
		C146.5,102.3,146.4,99.6,144.6,99.7z M127.5,128.9c1.7-0.1,1.5-2.8-0.2-2.7C125.6,126.3,125.8,129,127.5,128.9z M151,135.8
		c0.1-0.8-0.3-1.7-1.3-1.6c-1.7,0.1-1.5,2.8,0.2,2.7c0.2,0,0.3-0.1,0.5-0.1c0.1,0.6,0.2,1.1,0.3,1.7c0.1,0,0.2,0,0.2,0
		c0.2,0,0.4-0.1,0.5-0.1c0,0.3,0.1,0.5,0.3,0.7c0-0.3-0.1-0.5-0.1-0.8C152.3,137.6,152.1,136.1,151,135.8z M149.3,88.7
		c-1.6,0.1-1.5,2.3-0.2,2.6c-0.1,0.7,0.2,1.5,1.1,1.6c1.7,0.2,2.1-2.3,0.5-2.6c-0.1,0-0.2,0-0.3,0c0-0.3,0.1-0.6,0.1-0.9
		C150.2,88.9,149.9,88.6,149.3,88.7z M117.4,111.8c-1.7,0.1-1.5,2.8,0.2,2.7C119.3,114.4,119.1,111.7,117.4,111.8z M112.8,112.3
		c-0.3,0.8-0.6,1.6-0.8,2.5c0.1,0,0.1,0,0.2,0C113.7,114.7,113.8,112.9,112.8,112.3z M123.7,147.9c0.1-0.8-0.3-1.7-1.3-1.6
		c-1.7,0.1-1.5,2.8,0.2,2.7c0.2,0,0.3-0.1,0.5-0.1c0.1,0.6,0.2,1.1,0.3,1.7c0.1,0,0.2,0,0.2,0c0.2,0,0.4-0.1,0.5-0.1
		c0,0.3,0.1,0.5,0.3,0.7c0-0.3-0.1-0.5-0.1-0.8C125.1,149.6,124.8,148.2,123.7,147.9z M145.3,87.1c-0.2,0.7,0.1,1.6,1,1.7
		c1.3,0.2,1.8-1.3,1.2-2.2C146.8,86.8,146,86.9,145.3,87.1z M125.4,156.8c-0.2,0.7,0.2,1.5,1.1,1.6c1.7,0.2,2.1-2.3,0.5-2.6
		c-0.8-0.2-1.3,0.3-1.5,0.9c-0.1-0.6-0.3-1.2-0.4-1.8c0.1-0.7-0.2-1.4-1-1.5c0.1-0.7-0.2-1.5-1.1-1.6c-1.7-0.2-2.1,2.4-0.4,2.6
		c0.6,0.1,1-0.2,1.2-0.5c0.1,0.7,0.3,1.3,0.4,2c0.1,0,0.1-0.1,0.2-0.1C124.5,156.2,124.9,156.6,125.4,156.8z M137.6,97.8
		c0.1-0.4,0.1-0.9,0.2-1.3c0.2,0.5,0.6,1,1.3,0.9c1.7-0.1,1.5-2.8-0.2-2.7c-1,0.1-1.3,1-1.1,1.7C137.5,96.8,137.4,97.3,137.6,97.8z
		 M123,159.7c1.7,0.2,2.1-2.3,0.5-2.6C121.7,156.7,121.2,159.4,123,159.7z M136.4,101.5c0.4,0,0.6-0.2,0.8-0.4
		c0-0.4,0.1-0.7,0.1-1.1c0.8-0.7,0.6-2.2-0.7-2.4c-1.1-0.2-1.6,0.9-1.4,1.7C134.7,100.1,135.1,101.5,136.4,101.5z M122.4,106.1
		c-0.2,0-0.4,0.1-0.5,0.1c-0.1-0.3-0.2-0.6-0.5-0.8c0,0.5-0.1,1-0.1,1.5c-0.1,0.2-0.1,0.4,0,0.6c0,0,0,0.1,0,0.1c0,0,0,0,0,0
		c0.1,0.5,0.4,0.9,1,1c-0.2,0.7,0.2,1.5,1.1,1.6c1.7,0.2,2.1-2.4,0.4-2.7c-0.5-0.1-0.9,0.1-1.1,0.4c0.1-0.6,0.1-1.3,0.2-1.9
		C122.6,106.1,122.5,106.1,122.4,106.1z M147.4,96.9c-1.7-0.2-2.1,2.4-0.4,2.7c0.5,0.1,1-0.1,1.2-0.5c0,0.7-0.1,1.4-0.1,2
		c0,0,0.1,0,0.1,0c0.2,0,0.4-0.1,0.5-0.1c0.1,0.3,0.2,0.6,0.5,0.8c0-0.6,0.1-1.2,0.1-1.7c0-0.1,0-0.3,0-0.4c0-0.1,0-0.1,0-0.2
		c0,0,0,0,0,0c-0.1-0.5-0.4-0.9-1-1C148.6,97.8,148.3,97,147.4,96.9z M163.5,99.8c0-0.2,0-0.4,0-0.5c0.1,0.6,0.5,1.2,1.4,1.2
		c1.7-0.1,1.5-2.8-0.2-2.7c-0.7,0-1,0.5-1.2,1c0-0.4,0-0.8,0.1-1.2C162.8,97.9,162.8,99.3,163.5,99.8z M136.8,143.1
		c0.1,0.4,0.2,0.8,0.2,1.3c-0.1,0-0.3-0.1-0.5-0.1c-1.7,0.1-1.5,2.8,0.2,2.7c1-0.1,1.4-1,1.1-1.7
		C138.5,144.5,138.1,143.1,136.8,143.1z M163.1,106c-0.2-0.2-0.4-0.4-0.8-0.5c-1.6-0.2-2,2-0.7,2.5c0.2,0.3,0.5,0.5,0.9,0.5
		C164.2,108.8,164.6,106.5,163.1,106z M134,109.6C134,109.6,134,109.6,134,109.6c0.5-0.3,0.9-0.5,1.4-0.8c0.1-0.3,0.2-0.6,0.1-1
		c0.5-0.8,0.1-2.2-1.1-2.1c-0.2,0-0.3,0.1-0.4,0.1c0,0.4,0,0.7,0,1.1C132.6,107.3,132.5,109.4,134,109.6z M120.3,114.3
		c-1.7,0.1-1.5,2.8,0.2,2.7c0.2,0,0.3-0.1,0.4-0.1c0,0.5,0,1,0,1.5c0.6-0.4,1.2-0.8,1.8-1.2c0-0.6-0.4-1.1-1-1.3
		C121.7,115.1,121.3,114.2,120.3,114.3z M131.6,109.8c-1.2,0.1-1.4,1.3-1,2c0.7-0.5,1.4-1,2.2-1.4
		C132.5,110.1,132.2,109.8,131.6,109.8z M117.2,109.1c1.7-0.1,1.5-2.8-0.2-2.7C115.3,106.6,115.5,109.3,117.2,109.1z M136.7,106.8
		c0-0.4,0.1-0.8,0.1-1.2c0.1,0,0.1,0,0.2,0c1.7-0.1,1.5-2.8-0.2-2.7c-1,0.1-1.3,1-1.1,1.7C135.1,105.4,135.5,106.8,136.7,106.8z
		 M141.2,161.7c0.2,0.6,0.3,1.1,0.5,1.7c-0.2-0.4-0.6-0.6-1.1-0.6c-1.7,0.1-1.5,2.8,0.2,2.7c1-0.1,1.3-1,1.1-1.7
		C142.3,163.1,142.1,162,141.2,161.7z M132.7,166c-1.7,0.1-1.5,2.8,0.2,2.7C134.6,168.6,134.4,165.9,132.7,166z M146.7,71.2
		c-0.1-0.6-0.6-1.1-1.3-1c-0.2,0-0.4,0.1-0.5,0.1c0,0,0,0-0.1,0.1c-0.5,0.3-0.6,0.8-0.6,1.3C145,71.4,145.8,71.3,146.7,71.2z
		 M151.6,72.2c0.9-0.7,0.6-2.5-0.9-2.4c-1,0.1-1.3,0.9-1.1,1.7C150.3,71.7,150.9,71.9,151.6,72.2z M148.9,163.8
		c-1.7,0.1-1.5,2.8,0.2,2.7c0.3,0,0.5-0.1,0.7-0.3c0.1-0.3,0.1-0.6,0.1-0.9c0-0.3,0.1-0.6,0.1-1C149.8,164,149.4,163.7,148.9,163.8z
		 M115.1,179.2c-0.2-0.6-0.4-1.2-0.5-1.7c-0.9,0.1-1.7,1.1-0.9,2c0.2,0.2,0.4,0.4,0.7,0.4C114.6,179.7,114.9,179.4,115.1,179.2z
		 M139.4,167.3c0.1-0.7-0.2-1.4-1-1.6c-1.3-0.3-1.9,1.3-1.3,2.1C137.9,167.4,138.6,167.3,139.4,167.3z M127.2,178.2
		c0.9-0.1,1.3-0.8,1.2-1.4c-0.7,0.4-1.5,0.7-2.2,1.1C126.5,178.1,126.8,178.2,127.2,178.2z M122,181.2c-1,0.1-1.4,1-1.1,1.8
		c0,0,0,0,0,0c0.8-0.4,1.5-0.7,2.3-1.1C123.1,181.5,122.7,181.2,122,181.2z M157.2,73.7C157.2,73.7,157.2,73.7,157.2,73.7
		c-0.4-0.6-0.8-1.2-1.3-1.7C155.7,72.8,156.2,73.8,157.2,73.7z M129.5,176.2c0.2,0.4,0.6,0.7,1.2,0.7c1-0.1,1.4-1.1,1.1-1.8
		C131,175.5,130.3,175.8,129.5,176.2z M114.8,182.4c-0.9,0.1-1.2,0.8-1.1,1.5c0.7,0.2,1.4,0.3,2.2,0.4
		C116.4,183.5,116,182.3,114.8,182.4z M113.8,174.9c-0.2-0.6-0.4-1.3-0.5-1.9C112.9,173.6,113.1,174.6,113.8,174.9z M139.7,154.8
		c-0.1-0.4-0.2-0.9-0.3-1.3c0.1,0.1,0.3,0.1,0.5,0.2c1.7,0.2,2.1-2.4,0.4-2.6c-1.1-0.2-1.6,0.9-1.4,1.7
		C138.4,153.4,138.7,154.6,139.7,154.8z M138.7,84.1c-0.1,0-0.3-0.1-0.5-0.1c-1,0.1-1.3,1-1.1,1.7c-0.2,0.2-0.3,0.4-0.3,0.7
		c0.3,0.5,0.6,0.9,0.9,1.4c0.7,0.2,1.4-0.2,1.7-0.8c0-0.2,0.1-0.4,0.1-0.5c0-0.1,0-0.2-0.1-0.4c0.1-0.1,0.2-0.3,0.2-0.5
		C139.2,85.2,138.9,84.7,138.7,84.1z M113.5,168.4c-0.4-0.1-0.7,0-0.9,0.2c0.2,0.8,0.4,1.7,0.6,2.5
		C114.7,171.1,115.1,168.7,113.5,168.4z M133.6,161.5c-0.8-1.8-3.5-0.2-2.3,1.4C132.3,164.1,134.3,162.9,133.6,161.5z M126.9,163.7
		c1.7,0.2,2.1-2.4,0.4-2.6c-0.3,0-0.5,0-0.7,0.1c-0.1-0.6-0.3-1.1-0.4-1.7c0,0-0.1,0-0.1,0c-0.2,0-0.4,0.1-0.5,0.1
		c-0.1-0.4-0.3-0.7-0.6-0.9c0.1,0.4,0.2,0.8,0.3,1.1c-0.6,0.7-0.4,2,0.7,2.2C125.6,162.8,126,163.6,126.9,163.7z M150.6,152.9
		c0.2,0,0.3,0,0.4,0c0.1-0.9,0.1-1.7,0.2-2.6c-0.1,0-0.2-0.1-0.3-0.1C149.3,150,148.9,152.7,150.6,152.9z M163.4,104.4
		c0-0.3,0-0.6,0-0.8C163.3,103.8,163.3,104.1,163.4,104.4z M129.9,171.5c0.5-0.3,1.1-0.6,1.6-0.8c0.2-0.8-0.2-1.8-1.3-1.8
		C128.6,169,128.6,171.1,129.9,171.5z M148.5,120.9c0.1,0,0.2,0,0.3,0c0,0.4,0.1,0.8,0.1,1.3c0.2,0.2,0.5,0.3,0.9,0.3
		c1.7-0.1,1.5-2.6,0-2.7c0-0.4,0-0.8-0.1-1.2c-0.2-0.2-0.4-0.4-0.8-0.4C147.1,118,146.7,120.6,148.5,120.9z M165.5,108.5
		c-1.7,0.1-1.5,2.8,0.2,2.7C167.4,111,167.2,108.3,165.5,108.5z M160.6,108.9c-0.2-0.3-0.6-0.5-1.1-0.5c-1.6,0.1-1.5,2.5-0.1,2.6
		c0,0.1,0,0.1,0,0.2c0.2,0.2,0.5,0.3,0.8,0.2C161.8,111.4,161.9,109.3,160.6,108.9z M163.5,111.4
		C163.5,111.4,163.5,111.4,163.5,111.4c-0.2-0.3-0.6-0.5-1.1-0.5c-1.5,0.1-1.6,2.2-0.3,2.6c0.2,0.3,0.6,0.5,1.1,0.5
		C164.7,113.9,164.7,111.7,163.5,111.4z M157,111.2c-1.7,0.1-1.5,2.8,0.2,2.7C158.9,113.8,158.8,111.1,157,111.2z M154.5,114.1
		c-1.7,0.1-1.5,2.8,0.2,2.7C156.4,116.6,156.3,114,154.5,114.1z M173.2,107.9c0.1,0,0.3,0,0.4,0c0,0.5,0,0.9,0.1,1.4
		c0.2,0.2,0.5,0.3,0.8,0.2c0.5,0,0.8-0.3,1-0.6c-0.2-0.6-0.4-1.3-0.7-1.9c-0.1,0-0.1-0.1-0.2-0.1c0,0,0,0,0,0c0-0.1,0-0.3,0-0.4
		c-0.1-0.3-0.2-0.6-0.4-0.9c-0.2-0.2-0.4-0.3-0.7-0.3C171.9,105,171.5,107.7,173.2,107.9z M152.3,116.9c-1.7-0.2-2.1,2.4-0.4,2.6
		C153.7,119.8,154,117.2,152.3,116.9z M167,107.8c1,1.2,2.9,0,2.3-1.4C168.5,104.6,165.8,106.2,167,107.8z M170.8,108.1
		c-1.7,0.1-1.5,2.8,0.2,2.7C172.7,110.6,172.6,108,170.8,108.1z M170.7,105.4c1.7-0.1,1.5-2.8-0.2-2.7
		C168.8,102.9,168.9,105.5,170.7,105.4z M141.1,126.8c-1.7,0.1-1.5,2.8,0.2,2.7C143,129.3,142.8,126.6,141.1,126.8z M138.1,118.9
		c-1.7-0.2-2.1,2.4-0.4,2.6C139.5,121.8,139.8,119.2,138.1,118.9z M140.4,116.1c-1.7,0.1-1.5,2.8,0.2,2.7
		C142.3,118.6,142.1,116,140.4,116.1z M143.9,118.7c-1.2-0.7-2.6,0.9-1.7,2C143.6,122.4,145.8,119.7,143.9,118.7z M173.6,104.1
		c0-0.1,0-0.1-0.1-0.2C173.6,104,173.6,104,173.6,104.1C173.6,104.1,173.6,104.1,173.6,104.1z M140.7,121.4
		c-1.7,0.1-1.5,2.8,0.2,2.7C142.6,124,142.4,121.3,140.7,121.4z M146.2,123.7c1.7-0.1,1.5-2.8-0.2-2.7
		C144.3,121.2,144.5,123.9,146.2,123.7z M132.7,125.8c-1.7,0.1-1.5,2.8,0.2,2.7C134.6,128.4,134.4,125.7,132.7,125.8z M143.7,126.6
		c1.7-0.1,1.5-2.8-0.2-2.7C141.8,124,142,126.7,143.7,126.6z M135.4,121.8c-0.4,0-0.7,0.2-0.9,0.4c0,0.3,0,0.6,0.1,1
		c-1,0.6-0.7,2.6,0.8,2.5c0.5,0,0.8-0.3,1-0.6c0-0.3,0-0.6-0.1-0.9C137.1,123.4,136.8,121.7,135.4,121.8z M174,118.6
		c0.1,0,0.2,0,0.3,0c0,0.4,0.1,0.8,0.1,1.3c0.2,0.2,0.5,0.3,0.9,0.3c1.7-0.1,1.5-2.6,0-2.7c0-0.4,0-0.8-0.1-1.2
		c-0.2-0.2-0.4-0.4-0.8-0.4C172.6,115.7,172.2,118.4,174,118.6z M165.8,113.8c-1.7,0.1-1.5,2.8,0.2,2.7
		C167.7,116.3,167.6,113.7,165.8,113.8z M168.3,110.9c-1.7,0.1-1.5,2.8,0.2,2.7C170.2,113.5,170.1,110.8,168.3,110.9z M166.4,121.8
		c1.7-0.1,1.5-2.8-0.2-2.7C164.5,119.2,164.7,121.9,166.4,121.8z M162.7,124.1c0.2,0.2,0.5,0.4,0.9,0.5c1.6,0.2,2.1-2.2,0.5-2.6
		c0,0,0,0,0-0.1c-0.2-0.2-0.4-0.3-0.7-0.4C161.8,121.2,161.3,123.7,162.7,124.1z M161,114.2c-0.2-0.3-0.6-0.5-1.1-0.5
		c-1.6,0.1-1.5,2.4-0.1,2.6c0,0.1,0,0.1,0,0.2c0.2,0.2,0.5,0.3,0.9,0.3C162.2,116.7,162.2,114.6,161,114.2z M169.4,116.4
		c-1.2-0.7-2.6,0.9-1.7,2C169.1,120.1,171.3,117.4,169.4,116.4z M110.9,131C110.9,131,110.9,131,110.9,131c-0.1,0.9-0.1,1.8-0.1,2.7
		C112.3,133.7,112.5,131.3,110.9,131z M175.5,122.8c0-0.4-0.1-0.8-0.1-1.2c-0.2-0.2-0.4-0.3-0.7-0.4c-1.7-0.4-2.2,2.4-0.5,2.6
		c0.1,0,0.2,0,0.3,0c0,0.4,0.1,0.9,0.1,1.3c0.2,0.2,0.5,0.3,0.9,0.3c0.3,0,0.5-0.1,0.7-0.2c0.1-0.6,0.3-1.2,0.4-1.7
		C176.4,123.1,176,122.9,175.5,122.8z M162.4,118.8c0.2,0.2,0.5,0.4,0.9,0.5c1.6,0.2,2-2.2,0.6-2.6c0,0,0,0,0-0.1
		c-0.2-0.2-0.4-0.4-0.8-0.4C161.4,116,161,118.4,162.4,118.8z M136.5,114.2c0,0.4-0.1,0.9-0.1,1.3c0.2,0.5,0.6,0.8,1.3,0.8
		c1.7-0.1,1.5-2.8-0.2-2.7C137,113.6,136.7,113.9,136.5,114.2z M135.4,131c0.6,0.1,1-0.2,1.2-0.6c0-0.3,0-0.6-0.1-0.9
		c0.9-0.7,0.5-2.5-0.9-2.4c-0.4,0-0.7,0.2-0.9,0.4l0,0.2c0,0.3,0,0.5,0.1,0.8C134,129.1,134,130.8,135.4,131z M171.4,116.1
		c1.7-0.1,1.5-2.8-0.2-2.7C169.5,113.6,169.6,116.2,171.4,116.1z M174.8,111.1c-0.2-0.3-0.6-0.5-1.1-0.5c-1.7,0.1-1.5,2.8,0.2,2.7
		c0,0.5,0.1,0.9,0.1,1.3c0.2,0.2,0.5,0.3,0.9,0.3c1.7-0.1,1.5-2.6,0-2.6C174.8,111.8,174.8,111.4,174.8,111.1z M172.1,126.8
		c1.7-0.1,1.5-2.8-0.2-2.7C170.2,124.2,170.4,126.9,172.1,126.8z M172.3,129.4c-1.7,0.1-1.5,2.8,0.2,2.7
		C174.2,132,174,129.3,172.3,129.4z M171.6,118.8c-1.7,0.1-1.5,2.8,0.2,2.7C173.5,121.3,173.3,118.7,171.6,118.8z M176,110.5
		c0,0.3,0,0.6,0.2,0.8C176.1,111.1,176.1,110.8,176,110.5z M177,117.1c0-0.7-0.1-1.5-0.2-2.2C176.1,115.5,176.1,116.7,177,117.1z
		 M176.8,122c0.1-0.5,0.1-1,0.1-1.5C176.7,120.9,176.6,121.5,176.8,122z M170.3,100.1c0.4,0,0.6-0.2,0.8-0.4c-0.5-0.7-1-1.4-1.5-2.1
		C168.5,98.1,168.8,100.2,170.3,100.1z M165.3,138.1c-0.2-0.2-0.5-0.4-0.9-0.5c-1.6-0.2-2,2-0.7,2.5c0.1,0.1,0.2,0.3,0.4,0.4
		c0.3-0.1,0.5-0.3,0.7-0.4c0.4-0.2,0.8-0.4,1.2-0.7C166.2,138.9,165.9,138.3,165.3,138.1z M119.4,163.5c-0.8-1.8-3.5-0.2-2.3,1.4
		C118.1,166.1,120.1,164.9,119.4,163.5z M129.6,160.9c1.7-0.1,1.5-2.8-0.2-2.7C127.7,158.3,127.9,161,129.6,160.9z M115.8,168.2
		c1.7-0.1,1.5-2.8-0.2-2.7C113.9,165.7,114.1,168.3,115.8,168.2z M121.2,167.9c1.7-0.1,1.5-2.8-0.2-2.7
		C119.2,165.3,119.4,168,121.2,167.9z M123.4,165c1.7,0.2,2.1-2.4,0.4-2.7C122,162.1,121.7,164.8,123.4,165z M120.8,162.5
		c1.7-0.1,1.5-2.8-0.2-2.7C118.9,160,119.1,162.6,120.8,162.5z M121.9,103.4c-0.1,0.7,0.2,1.5,1.1,1.6c1.7,0.2,2.1-2.3,0.5-2.6
		c-0.1,0-0.2,0-0.3,0c0-0.3,0.1-0.6,0.1-0.9c-0.1-0.2-0.2-0.3-0.4-0.4c0,0,0,0,0,0c-0.7,0.4-1.3,0.8-1.9,1.2
		C120.9,102.8,121.3,103.3,121.9,103.4z M109.5,168c0,0.8-0.1,1.5-0.1,2.3C110.3,170,110.5,168.4,109.5,168z M112.7,165.7
		c1.7,0.2,2.1-2.4,0.4-2.6C111.3,162.8,110.9,165.5,112.7,165.7z M111.4,167.7c0.2,0,0.4-0.1,0.5-0.1c-0.2-0.8-0.4-1.5-0.5-2.3
		c0,0-0.1,0-0.1,0C109.6,165.4,109.8,167.8,111.4,167.7z M148.7,161.1c1.7-0.1,1.5-2.8-0.2-2.7C146.8,158.5,147,161.2,148.7,161.1z
		 M145.9,158.6c1.7-0.1,1.5-2.8-0.2-2.7C144,156.1,144.2,158.7,145.9,158.6z M142.7,150.8c1.7-0.1,1.5-2.8-0.2-2.7
		C140.8,148.2,140.9,150.9,142.7,150.8z M148.2,153.1c-1.7,0.1-1.5,2.8,0.2,2.7C150.1,155.6,149.9,153,148.2,153.1z M125.7,102.2
		c1.7-0.1,1.5-2.8-0.2-2.7C123.8,99.6,124,102.3,125.7,102.2z M157.9,84.4c0.4,0,0.7-0.2,0.9-0.4c0.1-0.4,0.2-0.7,0.3-1.1
		c-0.1-0.6-0.5-1.2-1.4-1.1C156,81.8,156.2,84.5,157.9,84.4z M137.6,163c1.7,0.2,2.1-2.4,0.4-2.6C136.2,160.1,135.8,162.8,137.6,163
		z M135.5,168.5c-0.5,0-0.8,0.2-1,0.5C134.9,168.9,135.2,168.7,135.5,168.5C135.6,168.5,135.5,168.5,135.5,168.5z M135.2,163.2
		c-1.7,0.1-1.5,2.8,0.2,2.7C137.1,165.7,136.9,163.1,135.2,163.2z M130,166.2c1.7-0.1,1.5-2.8-0.2-2.7
		C128.1,163.7,128.3,166.3,130,166.2z M140.7,156.3c-0.4-0.1-0.7,0-0.9,0.2c0.1,0.3,0.2,0.7,0.3,1c-1.6,0.3-1.4,2.7,0.3,2.6
		c0.2,0,0.4-0.1,0.5-0.1c-0.1-0.4-0.2-0.7-0.3-1.1C142,158.7,142.2,156.6,140.7,156.3z M131.1,101.8c1.7-0.1,1.5-2.8-0.2-2.7
		C129.1,99.3,129.3,101.9,131.1,101.8z M154.2,143.6c-0.8-0.2-1.3,0.3-1.5,0.9c-0.1-0.6-0.3-1.2-0.4-1.8c0.1-0.7-0.2-1.4-1-1.5
		c0.1-0.7-0.2-1.5-1.1-1.6c-1.7-0.2-2.1,2.4-0.4,2.6c0.6,0.1,1-0.2,1.2-0.5c0.1,0.7,0.3,1.3,0.4,2c0.1,0,0.1-0.1,0.2-0.1
		c0.1,0.5,0.4,0.9,1,1.1c-0.1,0.6,0.1,1.2,0.6,1.5c0.4-0.3,0.8-0.5,1.2-0.7c0.2-0.1,0.5-0.2,0.7-0.3
		C155.3,144.4,155,143.8,154.2,143.6z M161.7,140.4c-1.1,0.1-1.4,1.1-1.1,1.9c0.8-0.4,1.7-0.8,2.5-1.3c-0.1-0.1-0.2-0.1-0.3-0.2
		C162.5,140.6,162.2,140.4,161.7,140.4z M157,87.8c-0.3,0.8,0.1,2,1.3,1.9c0.6,0,0.9-0.4,1.1-0.8c-0.3-0.2-0.7-0.4-1-0.5
		C157.9,88.2,157.5,88,157,87.8z M160.6,92.1c0.2,0.2,0.5,0.4,0.9,0.5c1,0.1,1.5-0.7,1.5-1.5c-0.7-0.5-1.5-1-2.3-1.5
		C159.6,90,159.4,91.7,160.6,92.1z M152.2,147.2c0.1-0.1,0.1-0.2,0.2-0.2c-0.1-0.1-0.2-0.2-0.3-0.3
		C152.1,146.9,152.2,147,152.2,147.2z M146.7,151.4c-0.8-1.8-3.5-0.2-2.3,1.4C145.3,154,147.3,152.8,146.7,151.4z M143,156.1
		c1.7-0.1,1.5-2.8-0.2-2.7C141.1,153.6,141.3,156.2,143,156.1z M155.6,89.9c-1.7,0.1-1.5,2.8,0.2,2.7
		C157.5,92.4,157.3,89.8,155.6,89.9z M150.7,144.9c-1.7-0.4-2.2,2.4-0.5,2.6C151.9,147.8,152.4,145.3,150.7,144.9z M147.9,147.8
		c-1.7,0.1-1.5,2.8,0.2,2.7C149.8,150.3,149.6,147.6,147.9,147.8z M125.9,104.8c-1.7,0.1-1.5,2.8,0.2,2.7
		C127.8,107.4,127.6,104.7,125.9,104.8z M156,84.7c-0.1-0.1-0.2-0.1-0.4-0.1c-0.4,0.7-0.8,1.4-1.4,2c0,0,0,0.1,0.1,0.1
		C155.6,88.3,157.8,85.7,156,84.7z M133.3,99c1.1,0.2,1.6-0.9,1.4-1.7c0.4-0.6,0.3-1.4-0.3-1.9c0,0.4-0.1,0.8-0.1,1.3
		c-0.2-0.1-0.4-0.3-0.7-0.3C131.9,96.1,131.6,98.7,133.3,99z M128.4,102c-1.7,0.1-1.5,2.8,0.2,2.7
		C130.3,104.5,130.1,101.9,128.4,102z M136.1,96.1c1-0.1,1.3-1,1.1-1.7c0.5-0.7,0.3-1.9-0.8-2.1c-0.2,0-0.4,0-0.6,0
		c-0.2,0.2-0.5,0.3-0.7,0.5c-0.2,0.3-0.3,0.8-0.2,1.2C134.4,94.8,134.8,96.2,136.1,96.1z M153.1,92.7c-1.7,0.1-1.5,2.8,0.2,2.7
		C155,95.3,154.8,92.6,153.1,92.7z M139.5,89.8c-0.1,0.1-0.3,0.2-0.4,0.3c-0.6,0.4-1.2,0.8-1.7,1.2c-0.4,0.7-0.1,1.9,0.9,2
		c0.1-0.4,0.1-0.8,0.2-1.2c0.1,0,0.2,0,0.3,0c1.4-0.1,1.5-1.9,0.6-2.5C139.4,89.7,139.4,89.7,139.5,89.8z M152.9,90.1
		c1.7-0.1,1.5-2.8-0.2-2.7C151,87.5,151.2,90.2,152.9,90.1z M149.8,87.6c0.3,0,0.6,0,0.8-0.1c0,0.1,0,0.2,0.1,0.3c0-0.1,0-0.2,0-0.3
		c0.3-0.2,0.4-0.5,0.5-0.8c-0.6,0-1.3,0-1.9,0c0,0.3-0.1,0.5-0.1,0.8C149.4,87.4,149.6,87.5,149.8,87.6z M142.4,88.2
		c-0.1,0-0.2,0.1-0.3,0.1c-0.6-0.4-1.2-0.9-1.7-1.5c-0.6,0.4-0.9,1.3-0.3,1.9C141,89.7,142.1,89.1,142.4,88.2z M143.4,161.5
		c1.7-0.1,1.5-2.8-0.2-2.7C141.5,158.9,141.7,161.6,143.4,161.5z M116.3,176.2c-1.4,0.1-1.5,2-0.5,2.5c0,0,0,0,0,0
		c0.6-0.3,1.2-0.6,1.8-0.9C117.8,177,117.3,176.2,116.3,176.2z M142.6,172.5c0.5-0.2,1-0.5,1.6-0.7c-0.1-0.4-0.2-0.7-0.3-1.1
		C143,170.7,142.2,171.6,142.6,172.5z M125.5,173.8c-0.2-0.4-0.5-0.7-1-0.7c-1.2-0.2-1.7,1.1-1.4,2
		C123.9,174.6,124.7,174.2,125.5,173.8z M136,81.7c-0.1,0.4-0.1,0.8-0.2,1.2c-0.1-0.1-0.3-0.1-0.5-0.1c0.2,0.8,0.4,1.6,0.7,2.3
		c0.4-0.3,0.5-0.9,0.4-1.4C136.9,83.1,136.8,82.1,136,81.7z M137.5,172.3c-0.1,0.1-0.2,0.1-0.3,0.2c0,0.6,0.4,1.1,1.1,1.2
		c1.4,0.2,1.9-1.6,1.1-2.3C138.7,171.7,138.1,172,137.5,172.3z M109.8,177.8c-0.2,0-0.4,0-0.5,0c0.1,0.9,0.3,1.7,0.6,2.4
		C111.1,180,111.2,178,109.8,177.8z M157.6,79c1.7-0.1,1.5-2.8-0.2-2.7C155.7,76.5,155.8,79.2,157.6,79z M155.4,127.4
		c1.7-0.1,1.5-2.8-0.2-2.7C153.5,124.9,153.7,127.5,155.4,127.4z M137.8,82.6c0.1,0,0.2,0,0.3-0.1c-0.1-0.7-0.2-1.3-0.2-2
		c0-0.6,0.1-1.2,0.2-1.7c-0.1,0-0.2,0-0.3,0c-1,0.1-1.3,1-1.1,1.7C136.1,81.2,136.5,82.7,137.8,82.6z M138.7,75.6
		c-0.7,0.5-1.4,0.9-2.1,1.4C137.6,77.8,138.9,76.6,138.7,75.6z M135.9,173.9c-1.3,0.1-1.5,1.6-0.8,2.3c0.7-0.4,1.5-0.7,2.2-1.1
		C137.2,174.4,136.7,173.8,135.9,173.9z M125,178.4c-0.5,0.3-1.1,0.5-1.6,0.8c-0.3,0.7,0,1.7,1,1.8
		C126.1,181.2,126.5,178.9,125,178.4z M128.7,179.2c0.7-0.3,1.3-0.7,2-1c-0.2-0.2-0.5-0.3-0.8-0.2
		C129.1,178,128.7,178.6,128.7,179.2z M132.3,177.5c0.5-0.2,1-0.5,1.4-0.7c-0.1,0-0.2-0.1-0.4,0
		C132.8,176.8,132.5,177.1,132.3,177.5z M155.9,74.7c-0.4-0.9-1.2-0.9-1.9-0.6c0.6,0.6,1.1,1.3,1.5,2.1
		C155.9,75.8,156.1,75.3,155.9,74.7z M159.3,80.5c0-0.4,0-0.7-0.1-1.1c-0.3,0.5-0.3,1.2,0,1.6C159.3,80.8,159.3,80.7,159.3,80.5z
		 M148,70c0.9-0.1,1.2-0.8,1.2-1.4c-0.6-0.1-1.1-0.2-1.7-0.2c-0.3,0.2-0.5,0.4-0.8,0.5C146.8,69.5,147.3,70.1,148,70z M138.9,74.9
		c-0.5,0.4-0.9,0.7-1.4,1.1c0.1,0,0.1,0,0.2,0C138.4,76,138.8,75.5,138.9,74.9z M118.9,181.3c0.1,0,0.3,0.1,0.4,0.1
		c0.5,0,0.8-0.3,1-0.7c-0.1,0-0.2,0.1-0.2,0.1C119.7,181,119.3,181.2,118.9,181.3z M135.6,77.7c0,0-0.1,0.1-0.1,0.1
		c-0.2,0.7-0.3,1.5-0.3,2.3C136.4,79.8,136.5,78.3,135.6,77.7z M143.6,164.1c-1.7,0.1-1.5,2.8,0.2,2.7
		C145.5,166.7,145.3,164,143.6,164.1z M112.2,180.1c-1.6,0.1-1.4,2.6,0.2,2.5C114,182.5,113.8,180,112.2,180.1z M114,173.8
		c0.2,0.7,0.4,1.4,0.6,2.1C115.1,175.2,114.9,174.1,114,173.8z M116.2,173.6c1.7-0.1,1.5-2.8-0.2-2.7
		C114.2,171,114.4,173.7,116.2,173.6z M118.7,170.7c1.7-0.1,1.5-2.8-0.2-2.7C116.7,168.2,116.9,170.8,118.7,170.7z M119.9,173.8
		c-1.2-1.2-3.1,0.5-2,1.8C119,176.9,121.1,175.1,119.9,173.8z M112,177.6c1.6-0.1,1.4-2.6-0.2-2.5
		C110.3,175.3,110.4,177.7,112,177.6z M109.6,172.9c-0.1,0-0.2,0-0.3,0c0,0.8-0.1,1.6-0.1,2.4C110.7,175.5,111.1,173.2,109.6,172.9z
		 M129,97c-0.7,0.5-1.4,1-2.2,1.4c0.1,0.1,0.1,0.3,0.2,0.4C128.3,100.3,130.4,98.1,129,97z M111.7,172.7c0.9-0.1,1.3-0.9,1-1.6
		c0,0,0-0.1,0-0.1c-0.2-0.4-0.6-0.7-1.2-0.7C109.9,170.3,110.1,172.8,111.7,172.7z M150.6,158.1c0.1-0.8,0.2-1.7,0.2-2.5
		C149.7,155.9,149.5,157.6,150.6,158.1z M121.3,170.5c-1.7,0.1-1.5,2.8,0.2,2.7C123.2,173.1,123.1,170.4,121.3,170.5z M147.1,161.7
		c-1.2-1.2-3.1,0.5-2,1.8C146.3,164.8,148.4,163,147.1,161.7z M131.9,95c-0.6,0.4-1.3,0.9-1.9,1.3c0.2,0.1,0.4,0.2,0.7,0.2
		C131.6,96.4,132,95.7,131.9,95z M146.4,166.6c-1.7,0.1-1.5,2.8,0.2,2.7C148.3,169.2,148.2,166.5,146.4,166.6z M141.1,170.8
		c0.7,0,1-0.5,1.2-1c-0.6,0.3-1.2,0.6-1.7,0.9C140.7,170.8,140.8,170.9,141.1,170.8z M128.8,169.9c-0.1-0.5-0.3-0.9-0.4-1.4
		c0.5-0.7,0.4-1.9-0.7-2.1c0-0.2,0-0.5,0-0.7c0-0.1,0-0.1,0-0.2c-0.2-0.5-0.6-0.8-1.3-0.8c-1.7,0.1-1.5,2.8,0.2,2.7
		c0.2,0,0.3,0,0.4-0.1c0.1,0.6,0.3,1.1,0.4,1.6c0.3,0,0.5-0.1,0.7-0.2C128.1,169.3,128.3,169.7,128.8,169.9z M126.7,170.2
		c-1.7,0.1-1.5,2.8,0.2,2.7C128.6,172.7,128.4,170.1,126.7,170.2z M123.7,170.3c1.7,0.2,2.1-2.3,0.5-2.6
		C122.4,167.3,122,170.1,123.7,170.3z M128.3,172.3c0.1-0.1,0.2-0.1,0.4-0.2c-0.1-0.1-0.3-0.2-0.5-0.3
		C128.2,172,128.2,172.1,128.3,172.3z M142.4,165.9c-0.4,0.7-0.2,1.7,0.6,2C142.8,167.2,142.6,166.6,142.4,165.9z M153.3,72.4
		c-0.3,0.1-0.5,0.3-0.7,0.5c0.2,0.1,0.3,0.2,0.5,0.4C153.2,73,153.2,72.7,153.3,72.4z M112,155c1.7,0.2,2.1-2.4,0.4-2.6
		C110.6,152.2,110.2,154.8,112,155z M114.5,149.5c-1.7,0.1-1.5,2.8,0.2,2.7C116.5,152.1,116.3,149.4,114.5,149.5z M117,146.7
		c-1.7,0.1-1.5,2.8,0.2,2.7C119,149.2,118.8,146.6,117,146.7z M119.9,149.2c-1.7,0.1-1.5,2.8,0.2,2.7
		C121.8,151.7,121.6,149.1,119.9,149.2z M118.7,152.8c-0.8-1.8-3.5-0.2-2.3,1.4C117.4,155.4,119.3,154.2,118.7,152.8z M125.8,147.7
		c1.7,0.2,2.1-2.3,0.5-2.6C124.5,144.7,124,147.5,125.8,147.7z M137.2,157.7c1.7,0.2,2.1-2.3,0.5-2.6
		C135.9,154.7,135.4,157.4,137.2,157.7z M127.9,113.6c0.5-0.3,0.9-0.6,1.4-0.9c-0.1,0-0.2,0-0.3,0
		C128.4,112.7,128,113.1,127.9,113.6z M117.8,117.2c-1.7,0.1-1.5,2.8,0.2,2.7C119.7,119.7,119.5,117,117.8,117.2z M139.5,148.3
		c1.7,0.2,2.1-2.3,0.5-2.6C138.3,145.3,137.8,148,139.5,148.3z M109.9,155.3c0,0.5,0,1-0.1,1.5c0.1,0.3,0.1,0.7,0.2,1
		C111.3,157.4,111.2,155.6,109.9,155.3z M137.9,148.7c0.1,0.6,0.3,1.2,0.4,1.9C138.7,149.9,138.5,149,137.9,148.7z M136.9,152.3
		c1.7,0.2,2.1-2.4,0.4-2.6C135.5,149.4,135.1,152.1,136.9,152.3z M126.1,153c1.7,0.2,2.1-2.4,0.4-2.6
		C124.8,150.2,124.4,152.8,126.1,153z M134.6,155.2c1.7-0.1,1.5-2.8-0.2-2.7C132.7,152.6,132.9,155.3,134.6,155.2z M138.4,147.6
		c-0.2,0.5-0.1,1.1,0.2,1.5C138.5,148.6,138.4,148.1,138.4,147.6z M134.3,149.8c1.7-0.1,1.5-2.8-0.2-2.7
		C132.4,147.3,132.5,150,134.3,149.8z M131.4,147.4c1.7-0.1,1.5-2.8-0.2-2.7C129.5,144.8,129.7,147.5,131.4,147.4z M128.9,150.2
		c1.7-0.1,1.5-2.8-0.2-2.7C127,147.7,127.2,150.3,128.9,150.2z M133.9,144.5c1.7-0.1,1.5-2.8-0.2-2.7
		C132,142,132.2,144.6,133.9,144.5z M112.6,120.2c1.7-0.1,1.5-2.8-0.2-2.7c-0.5,0-0.8,0.3-1,0.6c0,0.4-0.1,0.9-0.1,1.4
		C111.5,119.9,111.9,120.2,112.6,120.2z M164.3,135.3c1.6,0.2,2-2.1,0.6-2.6c-0.2-0.3-0.6-0.5-1.1-0.5c-1.5,0.1-1.6,2.2-0.4,2.6
		C163.6,135.1,163.9,135.3,164.3,135.3z M167.1,132.5c1.7-0.1,1.5-2.8-0.2-2.7C165.2,129.9,165.4,132.6,167.1,132.5z M139.3,100.1
		c-1.7,0.1-1.5,2.8,0.2,2.7C141.2,102.6,141,100,139.3,100.1z M167.3,135.1c-1.7,0.1-1.5,2.8,0.2,2.7
		C169.2,137.7,169,135,167.3,135.1z M168.7,96.4c-0.4-0.5-0.9-1-1.3-1.5c-1,0-1.8,1.2-1,2.2C167.2,98.2,168.5,97.4,168.7,96.4z
		 M165.6,135.5c-0.2,0.5-0.1,1.1,0.2,1.5C165.8,136.5,165.7,136,165.6,135.5z M161,132.4c0,0.1,0,0.2,0,0.3c0.2,0.1,0.4,0.1,0.7,0.1
		c1.5-0.1,1.6-2.2,0.3-2.6c-0.2-0.3-0.6-0.5-1.1-0.5C159.3,129.9,159.4,132.4,161,132.4z M158.8,127.4c-1.2-0.7-2.6,0.9-1.7,2
		C158.5,131,160.7,128.4,158.8,127.4z M155.8,132.8c1.7-0.1,1.5-2.8-0.2-2.7C153.9,130.2,154.1,132.9,155.8,132.8z M158.6,135.3
		c1.7-0.1,1.5-2.8-0.2-2.7C156.7,132.7,156.9,135.4,158.6,135.3z M162.8,100.7c-0.2-0.3-0.6-0.5-1.1-0.5c-1.5,0.1-1.6,2.2-0.3,2.6
		c0.2,0.3,0.6,0.5,1.1,0.5C164,103.2,164,101.1,162.8,100.7z M144.3,94.4c-1.7,0.1-1.5,2.8,0.2,2.7C146.2,96.9,146,94.3,144.3,94.4z
		 M147.1,91.6c-1.7-0.4-2.2,2.4-0.5,2.6C148.3,94.4,148.8,91.9,147.1,91.6z M142.5,97.4c-1.2-0.7-2.6,0.9-1.7,2
		C142.2,101,144.4,98.4,142.5,97.4z M148.8,103.8c0.1-0.8-0.3-1.7-1.3-1.6c-1.7,0.1-1.5,2.8,0.2,2.7c0.2,0,0.3-0.1,0.4-0.1
		c0,0.5,0,1.1,0,1.6c0.2,0.1,0.4,0.1,0.6,0.1c0.2,0,0.4-0.1,0.5-0.1c0,0,0,0.1,0,0.1c0,0,0-0.1,0-0.1
		C150.2,105.8,150,104.1,148.8,103.8z M149.2,108.5c-0.1-0.5-0.5-0.9-1.1-0.9c-1.7-0.2-2.1,2.4-0.4,2.6c0.1,0,0.3,0,0.4,0
		c0,0.5,0,0.9,0.1,1.4c0.2,0.2,0.5,0.3,0.8,0.2c1.6-0.1,1.5-2.4,0.2-2.6c0,0,0,0,0,0C149.2,108.9,149.2,108.7,149.2,108.5z
		 M156.3,100.6c-1.7,0.1-1.5,2.8,0.2,2.7C158.2,103.1,158.1,100.5,156.3,100.6z M153.8,103.4c-1.7,0.1-1.5,2.8,0.2,2.7
		C155.7,106,155.6,103.3,153.8,103.4z M151.6,106.3c-1.7-0.2-2.1,2.4-0.4,2.6C152.9,109.2,153.3,106.5,151.6,106.3z M158.8,97.7
		c-1.7,0.1-1.5,2.8,0.2,2.7c0.2,0,0.3-0.1,0.5-0.1c0,0.2,0,0.4,0,0.5c0,0,0.1,0,0.1,0c1.5-0.1,1.5-2.1,0.3-2.6
		C159.7,97.9,159.4,97.7,158.8,97.7z M114.9,114.7c-1.7,0.1-1.5,2.8,0.2,2.7C116.8,117.2,116.6,114.5,114.9,114.7z M115.3,109.5
		c-0.4-0.2-0.8-0.2-1.1,0c-0.3,0.5-0.5,1-0.8,1.5c0,0.2,0.1,0.4,0.3,0.5C114.9,113.1,117.1,110.5,115.3,109.5z M119.4,106.3
		c1.7,0.2,2.1-2.3,0.5-2.6C118.2,103.3,117.7,106.1,119.4,106.3z M142.1,142.8c-1.7,0.1-1.5,2.8,0.2,2.7
		C144,145.3,143.9,142.7,142.1,142.8z M110.8,162.8c-0.2-0.7-0.3-1.5-0.5-2.3C109.4,161.1,109.6,162.6,110.8,162.8z M109.6,163.5
		c0,0.5,0,1-0.1,1.5C109.9,164.5,109.9,163.9,109.6,163.5z M120.2,109c-1.7-0.2-2.1,2.4-0.4,2.7c0.5,0.1,1-0.1,1.2-0.5
		c0,0.7-0.1,1.4-0.1,2c0,0,0.1,0,0.1,0c0.2,0,0.4-0.1,0.5-0.1c0.1,0.3,0.2,0.6,0.5,0.8c0-0.6,0.1-1.2,0.1-1.7c0-0.1,0-0.3,0-0.4
		c0-0.1,0-0.1,0-0.2c0,0,0,0,0,0c-0.1-0.5-0.4-0.9-1-1C121.4,109.9,121.1,109.1,120.2,109z M134.1,100.5c0,0.4,0,0.8,0,1.2
		c-1.7-0.3-2.1,2.4-0.4,2.6c1.1,0.1,1.6-0.9,1.4-1.7C135.6,101.8,135.2,100.5,134.1,100.5z M123.7,113c-1.7,0.1-1.5,2.8,0.2,2.7
		C125.6,115.6,125.5,112.9,123.7,113z M129.5,107.5c-1.2-0.7-2.6,0.9-1.7,2C129.1,111.1,131.3,108.5,129.5,107.5z M126.2,110.2
		c-1.7,0.1-1.5,2.8,0.2,2.7C128.1,112.7,128,110.1,126.2,110.2z M131.2,104.5c-1.7,0.1-1.5,2.8,0.2,2.7
		C133.1,107,133,104.4,131.2,104.5z M129.3,155.5c1.7-0.1,1.5-2.8-0.2-2.7C127.4,153,127.5,155.7,129.3,155.5z M132.1,158
		c1.7-0.1,1.5-2.8-0.2-2.7C130.2,155.5,130.4,158.1,132.1,158z M132.9,150.8c-0.8-1.8-3.5-0.2-2.3,1.4
		C131.6,153.4,133.5,152.2,132.9,150.8z M135,160.5c1.7-0.1,1.5-2.8-0.2-2.7C133.1,158,133.3,160.6,135,160.5z M115.4,162.9
		c1.7-0.1,1.5-2.8-0.2-2.7C113.5,160.3,113.7,163,115.4,162.9z M112.8,157.7c-1.7-0.4-2.2,2.4-0.5,2.6
		C114,160.6,114.4,158.1,112.8,157.7z M115.1,157.5c1.7-0.1,1.5-2.8-0.2-2.7C113.2,155,113.4,157.7,115.1,157.5z M120.4,157.2
		c1.7-0.1,1.5-2.8-0.2-2.7C118.5,154.6,118.7,157.3,120.4,157.2z M117.9,160c1.7-0.1,1.5-2.8-0.2-2.7
		C116,157.5,116.2,160.1,117.9,160z M111.1,162.6c0.4-0.6,0.2-1.5-0.4-1.9C110.8,161.4,110.9,162,111.1,162.6z M153,135.6
		c1.7,0.2,2.1-2.3,0.5-2.6C151.7,132.6,151.2,135.4,153,135.6z M153.4,140.9c1.7,0.2,2.1-2.4,0.4-2.6
		C152,138.1,151.7,140.7,153.4,140.9z M156.2,138.1c1.7-0.1,1.5-2.8-0.2-2.7C154.2,135.6,154.4,138.2,156.2,138.1z M161.5,137.7
		c0.1,0,0.2,0,0.3-0.1c0,0.2,0,0.3,0.1,0.5c0.1,0,0.2,0,0.2,0c1.5-0.1,1.6-2.2,0.3-2.6c-0.2-0.3-0.6-0.5-1.1-0.5
		C159.6,135.2,159.8,137.9,161.5,137.7z M157.9,140.1c1,1.2,2.9,0,2.3-1.4C159.3,136.9,156.7,138.6,157.9,140.1z M156.3,140.8
		c-1.7,0.1-1.5,2.8,0.2,2.7C158.2,143.3,158.1,140.7,156.3,140.8z M145,145.3c-1.7,0.1-1.5,2.8,0.2,2.7
		C146.9,147.8,146.7,145.1,145,145.3z M143.7,142.1c1,1.2,2.9,0,2.3-1.4C145.2,138.9,142.5,140.6,143.7,142.1z M147.5,142.4
		c-1.7,0.1-1.5,2.8,0.2,2.7C149.4,145,149.2,142.3,147.5,142.4z M147.1,137.1c-1.7,0.1-1.5,2.8,0.2,2.7
		C149,139.6,148.9,137,147.1,137.1z M153.5,98.1c-1.7,0.1-1.5,2.8,0.2,2.7C155.4,100.6,155.2,98,153.5,98.1z M150.9,95.6
		c-0.5-0.1-0.9,0.1-1.1,0.4c0.1-0.6,0.1-1.3,0.2-1.9c-0.1,0-0.2,0-0.3,0c-0.2,0-0.4,0.1-0.5,0.1c-0.1-0.3-0.2-0.6-0.5-0.8
		c0,0.5-0.1,1-0.1,1.5c-0.1,0.2-0.1,0.4,0,0.6c0,0,0,0.1,0,0.1c0,0,0,0,0,0c0.1,0.5,0.4,0.9,1,1c-0.2,0.7,0.2,1.5,1.1,1.6
		C152.2,98.5,152.6,95.8,150.9,95.6z M151,100.9c-1.7,0.1-1.5,2.8,0.2,2.7C152.9,103.5,152.7,100.8,151,100.9z M163.5,94.6
		c0.2,0.3,0.6,0.6,1.1,0.5c1-0.1,1.3-1,1.1-1.7c-0.3-0.3-0.7-0.6-1-0.9c-0.1,0-0.2,0-0.3,0c-0.1,0-0.2,0.1-0.3,0.1
		c0-0.2,0-0.3,0-0.5c-0.1,0-0.2,0-0.3,0C162.3,92.1,162.3,94.2,163.5,94.6z M141.4,91.9c-1.7,0.1-1.5,2.8,0.2,2.7
		C143.3,94.4,143.2,91.8,141.4,91.9z M144.1,91.7c1.7-0.1,1.5-2.8-0.2-2.7C142.2,89.2,142.4,91.8,144.1,91.7z M159.9,93.1
		c-0.1,0.8-0.1,1.5-0.2,2.3C160.6,94.9,160.6,93.6,159.9,93.1z M162.5,95.4c-0.2-0.2-0.5-0.4-0.9-0.5c-1.6-0.2-2,2.1-0.6,2.6
		c0.2,0.2,0.5,0.4,0.9,0.5C163.4,98.2,163.9,95.8,162.5,95.4z M158.6,95c1.7-0.1,1.5-2.8-0.2-2.7C156.7,92.5,156.9,95.2,158.6,95z
		 M156.7,95.4c-1.2-0.7-2.6,0.9-1.7,2C156.4,99,158.5,96.4,156.7,95.4z"/>
</g>
<g>
	<path class="st5" d="M195.7,51.9c1.2-0.9,2.4-1.8,3.5-2.6c-1.5-0.1-3.1-0.2-4.6-0.3c-0.2,0.2-0.5,0.3-0.7,0.5
		c-15.1,10.8-36.6,21.2-60.4,29.4c-27.8,9.5-54.4,14.3-72.8,14c-1.1,1-2.3,1.9-3.4,2.9c1.6,0.1,3.4,0.1,5.1,0.1
		c19.7,0,46.7-5.5,72-14.2C158.7,73.4,180.4,62.8,195.7,51.9z"/>
</g>
</svg>
