<?xml version="1.0" encoding="utf-8"?>
<!-- Generator: Adobe Illustrator 20.1.0, SVG Export Plug-In . SVG Version: 6.00 Build 0)  -->
<svg version="1.1" id="Layer_1" xmlns="http://www.w3.org/2000/svg" xmlns:xlink="http://www.w3.org/1999/xlink" x="0px" y="0px"
	 viewBox="0 0 347.9 347.9" style="enable-background:new 0 0 347.9 347.9;" xml:space="preserve">
<style type="text/css">
	.st0{fill:#70CCE3;}
</style>
<g>
	<path class="st0" d="M277.5,221.3c3.8-5.9,6.1-12.8,6.1-20.2v-88.6c0-20.5-16.8-37.3-37.3-37.3H106.3C85.8,75.1,69,91.9,69,112.4
		V201c0,20.5,16.8,37.3,37.3,37.3h126.3l66.2,26.1L277.5,221.3z M262.9,164.1c-9.3,21.8-34.8,36.8-46,34.3c-1.1-0.1-5.3-2-6.1-2.7
		c-2.1-1.6-4-4.5-5.6-8.2h-91.5c-4.4,0-8-3.6-8-8s3.6-8,8-8h88c-0.3-3.9-0.3-8.1,0.1-12.3h-88.1c-4.4,0-8-3.6-8-8c0-4.4,3.6-8,8-8
		h91.7c0.6-1.7,1.3-3.3,2.2-4.9c0.9-2.1,2-4.2,3.2-6.1h-97c-4.4,0-8-3.6-8-8c0-4.4,3.6-8,8-8h110.8c10.5-8.8,22.4-13.6,29.1-12.1
		c2.6,0.4,5,1.8,5.9,2.6C268.6,113.8,273.6,143,262.9,164.1z"/>
</g>
</svg>
