<?xml version="1.0" encoding="utf-8"?>
<!-- Generator: Adobe Illustrator 20.1.0, SVG Export Plug-In . SVG Version: 6.00 Build 0)  -->
<svg version="1.1" id="Layer_1" xmlns="http://www.w3.org/2000/svg" xmlns:xlink="http://www.w3.org/1999/xlink" x="0px" y="0px"
	 viewBox="0 0 347.9 347.9" style="enable-background:new 0 0 347.9 347.9;" xml:space="preserve">
<style type="text/css">
	.st0{fill:#70CCE3;}
</style>
<g>
	<path class="st0" d="M300.8,264.4l-21.4-43.2c3.8-5.9,6.1-12.8,6.1-20.2v-88.6c0-20.5-16.8-37.3-37.3-37.3H108.3
		C87.8,75.1,71,91.9,71,112.4V201c0,20.5,16.8,37.3,37.3,37.3h126.3L300.8,264.4z M115.7,116.3h125.2c4.4,0,8,3.6,8,8
		c0,4.4-3.6,8-8,8H115.7c-4.4,0-8-3.6-8-8C107.7,119.9,111.3,116.3,115.7,116.3z M115.7,143.3h125.2c4.4,0,8,3.6,8,8
		c0,4.4-3.6,8-8,8H115.7c-4.4,0-8-3.6-8-8C107.7,146.9,111.3,143.3,115.7,143.3z M115.7,187.5c-4.4,0-8-3.6-8-8s3.6-8,8-8h125.2
		c4.4,0,8,3.6,8,8s-3.6,8-8,8H115.7z"/>
</g>
</svg>
