<?xml version="1.0" encoding="utf-8"?>
<!-- Generator: Adobe Illustrator 20.1.0, SVG Export Plug-In . SVG Version: 6.00 Build 0)  -->
<svg version="1.1" id="Layer_1" xmlns="http://www.w3.org/2000/svg" xmlns:xlink="http://www.w3.org/1999/xlink" x="0px" y="0px"
	 viewBox="0 0 347.9 347.9" style="enable-background:new 0 0 347.9 347.9;" xml:space="preserve">
<style type="text/css">
	.st0{fill:url(#SVGID_1_);}
	.st1{fill:#FDFBFA;}
	.st2{fill:url(#SVGID_2_);}
</style>
<radialGradient id="SVGID_1_" cx="172.8394" cy="142.8331" r="55.341" gradientUnits="userSpaceOnUse">
	<stop  offset="0" style="stop-color:#F6A84F"/>
	<stop  offset="1" style="stop-color:#F17F21"/>
</radialGradient>
<path class="st0" d="M228.4,142.8c0-1.1-0.5-2.3-1.4-3l-9.2-8c-0.2-0.1-0.5-0.9-0.5-1.4c0-0.2,0-0.3,0-0.4l3.9-11.5
	c0.2-0.4,0.2-0.9,0.2-1.4c0-1.9-1.4-3.6-3.3-3.9l-12-2.3c-0.4,0-1.3-0.9-1.3-1.3l-2.4-11.9c-0.4-1.9-2-3.3-3.9-3.3
	c-0.4,0-0.9,0.1-1.4,0.2l-11.5,3.9c-0.1,0-0.2,0.1-0.4,0.1c-0.5,0-1.2-0.3-1.4-0.5l-8-9.1c-0.8-0.9-1.9-1.4-3.1-1.4
	c-1.2,0-2.3,0.5-3.1,1.4l-8,9.1c-0.1,0.2-0.9,0.5-1.4,0.5c-0.2,0-0.3,0-0.4-0.1l-11.5-3.9c-0.4-0.1-0.9-0.2-1.4-0.2
	c-1.9,0-3.6,1.4-3.9,3.3l-2.4,11.9c0,0.4-0.9,1.3-1.3,1.3l-12,2.3c-1.9,0.3-3.3,2-3.3,3.9c0,0.4,0.1,0.9,0.2,1.4l3.9,11.5
	c0,0.1,0,0.2,0,0.4c0,0.5-0.3,1.2-0.5,1.4l-9.2,8c-0.9,0.8-1.4,1.9-1.4,3c0,1.1,0.5,2.3,1.4,3l9.2,8c0.2,0.1,0.6,0.9,0.5,1.4
	c0,0.2,0,0.3-0.1,0.4l-3.9,11.5c-0.1,0.4-0.2,0.9-0.2,1.3c0,1.9,1.4,3.6,3.3,3.9l12,2.3c0.4,0,1.3,0.9,1.3,1.3l2.4,11.9
	c0.4,1.9,2,3.3,3.9,3.3c0.5,0,0.9-0.1,1.3-0.2L160,187c0.1,0,0.2-0.1,0.4-0.1c0.5,0,1.2,0.3,1.4,0.5l8,9.1c0.8,0.9,1.9,1.4,3,1.4h0
	c1.1,0,2.3-0.5,3.1-1.4l8-9.1c0.1-0.2,0.9-0.6,1.4-0.5c0.2,0,0.3,0,0.4,0.1l11.6,3.9c0.4,0.2,0.9,0.2,1.4,0.2c1.9,0,3.6-1.4,3.9-3.3
	l2.4-11.9c0-0.4,0.9-1.3,1.3-1.3l12-2.3c1.9-0.3,3.3-2,3.3-3.9c0-0.5-0.1-0.9-0.2-1.3l-4-11.5c0-0.1,0-0.2,0-0.4
	c0-0.5,0.3-1.2,0.5-1.4l9.2-8l-1.3-1.5l1.3,1.5C227.9,145.1,228.4,144,228.4,142.8z"/>
<g>
	<path class="st1" d="M150.3,135.1l4.6,10.9c0.8,2,1.5,3.9,2.1,5.7l0.1,0c0.2-2,0.4-3.9,0.7-6.1l1.8-11.6l7.9-0.9l-6.2,25.3
		l-7.5,0.9L142.1,136L150.3,135.1z"/>
	<path class="st1" d="M172.2,150.5c1.5,0.7,4.5,1.3,6.7,1c2.3-0.3,3.1-1.1,3-2.4c-0.1-1.2-1-1.8-3.9-2.4c-5.3-1.1-7.5-3.6-7.8-6.5
		c-0.5-4.6,3-8.4,9-9.1c2.8-0.3,5.4,0.1,7,0.7l-0.7,5.3c-1.2-0.4-3.4-1-5.4-0.7c-1.8,0.2-2.8,1.1-2.7,2.3c0.1,1.1,1.2,1.7,4.2,2.3
		c4.8,1.1,7,3.2,7.4,6.7c0.5,4.6-2.6,8.3-9.6,9.1c-3.2,0.4-6.1-0.1-8-0.8L172.2,150.5z"/>
	<path class="st1" d="M198,154.8c-2.5,0.3-4.6-1.4-4.9-4.1c-0.3-2.7,1.3-4.8,3.9-5.1c2.6-0.3,4.6,1.3,4.9,4.1
		C202.3,152.3,200.7,154.4,198,154.8L198,154.8z"/>
</g>
<g>
	<radialGradient id="SVGID_2_" cx="173.9448" cy="168.2444" r="120.1411" gradientUnits="userSpaceOnUse">
		<stop  offset="0" style="stop-color:#F6A84F"/>
		<stop  offset="1" style="stop-color:#F17F21"/>
	</radialGradient>
	<path class="st2" d="M141.5,216c-4.8-0.8-9.5-2.3-14.3-3.5c-2-0.5-2.9-1.8-2.9-4c-0.1-6.6-0.4-13.1-0.8-19.7
		c-0.1-2,0.7-2.7,2.4-2.7c2.1,0,4.2,0.4,6.3,0.3c1.7-0.1,4,0,4.8-1c0.9-1,1.8-1.4,2.8-1.5l-1.2-5.8c0-0.4-1-1.4-1.4-1.4l-12.7-2.5
		c-2-0.4-3.5-2.2-3.5-4.2c0-0.5,0.1-1,0.3-1.4l4.2-12.2c0-0.1,0.1-0.3,0.1-0.4c0-0.5-0.3-1.3-0.6-1.5l-9.8-8.5c-1-0.8-1.5-2-1.5-3.2
		c0-1.2,0.5-2.4,1.5-3.2l6.7-5.8c-5.1-4.5-11.2-8.5-18.7-11.7c-8.1-4.3-18.6-4.6-29.1-2.8c-18.1,3.1-32.4,12.1-41.6,28.3
		c-6.6,11.6-7.5,24.1-5.2,37c0.6,3.1,0.4,6.5-0.1,9.6c-0.6,4.7-0.4,6.2,4.2,7.6c3.1,1,6.8,1.6,9.8,0.8c7.2-1.9,12.7,0.1,17.3,5.4
		c2.8,3.2,5.2,6.7,8,9.9c5,5.9,11.5,9.4,19.2,10.2c6.8,0.8,12.4-1.8,16.8-7.2c0.4-0.5,2.2-0.6,3-0.2c4.2,2,8.2,4.3,12.4,6.3
		c1.9,0.9,2.8,2,3.1,4.3c1.6,13.1,10.7,20.9,23.1,20.1c1.7-0.1,2.8-0.6,3.2-2.3c1.5-7,3.4-13.9,4.2-20.9
		C152.7,219.1,150.8,217.4,141.5,216z M119.1,189.5c0.3,6.5,0.7,12.4,1,19c-4.3-2.7-7.1-5.7-7.4-10.2
		C112.5,194.4,115.2,191.9,119.1,189.5z M106.8,216.4c1.2-4.2,2.3-8.2,3.3-11.8c3.1,2.8,6.6,5.7,9.7,8.9c0.8,0.9,0.6,2.9,0.7,4.4
		c0.1,1.8,0.1,3.6,0.2,6C115.8,221.3,111.3,218.9,106.8,216.4z M144.1,245.9c-0.2,0.8-1.6,1.7-2.4,1.7c-9.1-0.4-16.1-7.9-16-17
		c6.7,1.5,13.4,3,20.8,4.7C145.7,238.8,145.1,242.4,144.1,245.9z M147.2,230.2c-6.1,0.3-11.5-1.1-16.8-2.9c-5.4-1.9-5.4-1.9-5.6-7.7
		c0-1,0-2.1,0.1-3.1c7,1.6,13.7,3.1,20.4,4.8c0.8,0.2,1.8,1.4,1.9,2.2C147.4,225.7,147.2,227.9,147.2,230.2z M320.5,185.3
		c2.3-13,1.3-25.5-5.2-37c-9.2-16.2-23.5-25.2-41.6-28.3c-10.5-1.8-21-1.5-29.1,2.8c-7.8,3.4-14.2,7.5-19.4,12.3l5.1,4.5
		c1,0.8,1.5,2,1.5,3.2c0,1.2-0.5,2.4-1.5,3.2l-9.8,8.5c-0.2,0.1-0.6,0.9-0.5,1.5c0,0.2,0,0.3,0,0.4l4.2,12.2
		c0.1,0.5,0.2,0.9,0.2,1.4c0,2-1.5,3.8-3.5,4.2l-12.7,2.5c-0.1,0-0.4,0.2-0.5,0.3c0,1.3-0.1,2.5-1.2,3.1l-0.9,4.4
		c0.1,0,0.3,0.1,0.4,0.1c1.9-0.3,3.2-0.2,4.8,1.5c0.9,1,3.2,0.9,4.8,1c2.1,0.1,4.2-0.3,6.3-0.3c1.7,0,2.5,0.7,2.4,2.7
		c-0.4,6.5-0.7,13.1-0.8,19.7c0,2.2-0.9,3.5-2.9,4c-4.8,1.2-9.5,2.7-14.3,3.5c-9.3,1.5-11.2,3.2-10.1,12.4c0.8,7,2.7,14,4.2,20.9
		c0.3,1.7,1.5,2.2,3.2,2.3c12.4,0.8,21.5-7,23.1-20.1c0.3-2.2,1.1-3.4,3.1-4.3c4.2-2,8.2-4.3,12.4-6.3c0.8-0.4,2.5-0.3,3,0.2
		c4.3,5.4,10,7.9,16.8,7.2c7.7-0.8,14.2-4.3,19.2-10.2c2.7-3.2,5.2-6.7,8-9.9c4.6-5.4,10.2-7.3,17.3-5.4c3,0.8,6.7,0.2,9.8-0.8
		c4.6-1.4,4.8-2.8,4.2-7.6C320.1,191.8,319.9,188.4,320.5,185.3z M206.1,248.3c-0.8,0-2.2-0.9-2.4-1.7c-1-3.5-1.6-7.1-2.3-10.6
		c7.4-1.7,14.1-3.2,20.7-4.7C222.2,240.3,215.3,247.9,206.1,248.3z M217.5,227.9c-5.3,1.9-10.6,3.2-16.8,2.9c0-2.3-0.2-4.5,0-6.6
		c0.1-0.8,1.1-2,1.9-2.2c6.7-1.7,13.4-3.2,20.4-4.8c0,1,0.1,2,0.1,3.1C222.8,225.9,222.9,226,217.5,227.9z M228.7,190.2
		c4,2.4,6.7,4.8,6.4,8.8c-0.3,4.4-3.1,7.4-7.4,10.2C228.1,202.6,228.4,196.7,228.7,190.2z M227.2,224.7c0.1-2.4,0-4.2,0.2-6
		c0.1-1.5-0.1-3.5,0.7-4.4c3.1-3.2,6.5-6.1,9.7-8.9c1,3.5,2.1,7.5,3.3,11.8C236.6,219.6,232.1,222,227.2,224.7z"/>
</g>
</svg>
